<svg width="579" height="180" viewBox="0 0 579 180" fill="none" xmlns="http://www.w3.org/2000/svg">
<g clip-path="url(#clip0_2_35)">
<line x1="508.418" y1="146.478" x2="591.167" y2="229.227" stroke="white" stroke-opacity="0.28" stroke-width="3.30996"/>
<line x1="508.418" y1="128.15" x2="591.167" y2="210.899" stroke="white" stroke-opacity="0.28" stroke-width="3.30996"/>
<line x1="508.418" y1="109.814" x2="591.167" y2="192.563" stroke="white" stroke-opacity="0.28" stroke-width="3.30996"/>
<line x1="508.418" y1="91.486" x2="591.167" y2="174.235" stroke="white" stroke-opacity="0.28" stroke-width="3.30996"/>
<line x1="508.418" y1="73.1501" x2="591.167" y2="155.899" stroke="white" stroke-opacity="0.28" stroke-width="3.30996"/>
<line x1="508.418" y1="54.8219" x2="591.167" y2="137.571" stroke="white" stroke-opacity="0.28" stroke-width="3.30996"/>
<line x1="508.418" y1="36.486" x2="591.167" y2="119.235" stroke="white" stroke-opacity="0.28" stroke-width="3.30996"/>
<line x1="508.418" y1="18.1579" x2="591.167" y2="100.907" stroke="white" stroke-opacity="0.28" stroke-width="3.30996"/>
</g>
<path d="M500.998 117.508L504.015 123.503" stroke="#878787" stroke-width="1.46158"/>
<path d="M505.504 118.999L499.509 122.016" stroke="#878787" stroke-width="1.46158"/>
<path d="M512.997 117.538L516.013 123.534" stroke="#878787" stroke-width="1.46158"/>
<path d="M517.503 119.03L511.508 122.046" stroke="#878787" stroke-width="1.46158"/>
<path d="M524.99 117.538L528.007 123.534" stroke="#878787" stroke-width="1.46158"/>
<path d="M529.497 119.03L523.501 122.046" stroke="#878787" stroke-width="1.46158"/>
<path d="M227.656 143H226.364L230.102 132.818H231.375L235.114 143H233.821L230.779 134.429H230.699L227.656 143ZM228.134 139.023H233.344V140.116H228.134V139.023ZM241.651 132.818V143H240.478V132.818H241.651ZM243.8 143V135.364H244.974V143H243.8ZM244.397 134.091C244.168 134.091 243.971 134.013 243.805 133.857C243.643 133.701 243.562 133.514 243.562 133.295C243.562 133.077 243.643 132.889 243.805 132.734C243.971 132.578 244.168 132.5 244.397 132.5C244.626 132.5 244.821 132.578 244.984 132.734C245.149 132.889 245.232 133.077 245.232 133.295C245.232 133.514 245.149 133.701 244.984 133.857C244.821 134.013 244.626 134.091 244.397 134.091ZM250.523 135.364V136.358H246.407V135.364H250.523ZM247.64 143V134.31C247.64 133.872 247.742 133.508 247.948 133.216C248.153 132.924 248.42 132.705 248.748 132.56C249.077 132.414 249.423 132.341 249.787 132.341C250.076 132.341 250.311 132.364 250.493 132.411C250.676 132.457 250.812 132.5 250.901 132.54L250.563 133.554C250.503 133.534 250.421 133.509 250.314 133.479C250.212 133.45 250.076 133.435 249.907 133.435C249.519 133.435 249.239 133.532 249.067 133.728C248.898 133.924 248.813 134.21 248.813 134.588V143H247.64ZM255.055 143.159C254.319 143.159 253.684 142.997 253.151 142.672C252.62 142.344 252.211 141.886 251.923 141.3C251.638 140.71 251.495 140.024 251.495 139.241C251.495 138.459 251.638 137.77 251.923 137.173C252.211 136.573 252.612 136.106 253.126 135.771C253.643 135.433 254.246 135.264 254.936 135.264C255.333 135.264 255.726 135.33 256.114 135.463C256.502 135.596 256.855 135.811 257.173 136.109C257.491 136.404 257.744 136.795 257.933 137.283C258.122 137.77 258.217 138.37 258.217 139.082V139.58H252.33V138.565H257.024C257.024 138.134 256.937 137.75 256.765 137.412C256.596 137.074 256.354 136.807 256.039 136.612C255.728 136.416 255.36 136.318 254.936 136.318C254.468 136.318 254.064 136.434 253.722 136.666C253.384 136.895 253.124 137.193 252.942 137.561C252.76 137.929 252.669 138.323 252.669 138.744V139.42C252.669 139.997 252.768 140.486 252.967 140.887C253.169 141.285 253.449 141.588 253.807 141.797C254.165 142.002 254.581 142.105 255.055 142.105C255.363 142.105 255.642 142.062 255.89 141.976C256.142 141.886 256.359 141.754 256.541 141.578C256.724 141.399 256.865 141.177 256.964 140.912L258.097 141.23C257.978 141.615 257.778 141.953 257.496 142.244C257.214 142.533 256.866 142.758 256.452 142.92C256.038 143.08 255.572 143.159 255.055 143.159ZM265.411 137.074L264.357 137.372C264.29 137.196 264.193 137.026 264.063 136.86C263.937 136.691 263.765 136.552 263.546 136.442C263.328 136.333 263.048 136.278 262.706 136.278C262.239 136.278 261.849 136.386 261.538 136.602C261.23 136.814 261.075 137.084 261.075 137.412C261.075 137.704 261.182 137.934 261.394 138.103C261.606 138.272 261.937 138.413 262.388 138.526L263.521 138.804C264.204 138.97 264.713 139.223 265.048 139.565C265.383 139.903 265.55 140.339 265.55 140.872C265.55 141.31 265.424 141.701 265.172 142.045C264.923 142.39 264.575 142.662 264.128 142.861C263.681 143.06 263.16 143.159 262.567 143.159C261.788 143.159 261.143 142.99 260.633 142.652C260.123 142.314 259.799 141.82 259.664 141.17L260.777 140.892C260.883 141.303 261.084 141.611 261.379 141.817C261.677 142.022 262.066 142.125 262.547 142.125C263.094 142.125 263.528 142.009 263.85 141.777C264.174 141.542 264.337 141.26 264.337 140.932C264.337 140.667 264.244 140.445 264.058 140.266C263.873 140.083 263.588 139.947 263.203 139.858L261.931 139.56C261.231 139.394 260.718 139.137 260.389 138.789C260.065 138.438 259.902 137.999 259.902 137.472C259.902 137.041 260.023 136.66 260.265 136.328C260.51 135.997 260.843 135.737 261.264 135.548C261.689 135.359 262.169 135.264 262.706 135.264C263.462 135.264 264.055 135.43 264.486 135.761C264.92 136.093 265.228 136.53 265.411 137.074ZM270.637 135.364V136.358H266.68V135.364H270.637ZM267.833 133.534H269.006V140.812C269.006 141.144 269.054 141.393 269.151 141.558C269.25 141.721 269.376 141.83 269.528 141.886C269.684 141.939 269.848 141.966 270.021 141.966C270.15 141.966 270.256 141.959 270.339 141.946C270.422 141.929 270.488 141.916 270.538 141.906L270.776 142.96C270.697 142.99 270.586 143.02 270.443 143.05C270.301 143.083 270.12 143.099 269.901 143.099C269.57 143.099 269.245 143.028 268.927 142.886C268.612 142.743 268.35 142.526 268.141 142.234C267.936 141.943 267.833 141.575 267.833 141.131V133.534ZM273.158 145.864C272.959 145.864 272.781 145.847 272.626 145.814C272.47 145.784 272.362 145.754 272.303 145.724L272.601 144.69C272.886 144.763 273.138 144.79 273.357 144.77C273.575 144.75 273.769 144.652 273.938 144.477C274.111 144.304 274.268 144.024 274.411 143.636L274.629 143.04L271.805 135.364H273.078L275.186 141.449H275.266L277.374 135.364H278.646L275.405 144.114C275.259 144.508 275.078 144.835 274.863 145.093C274.647 145.355 274.397 145.549 274.112 145.675C273.83 145.801 273.512 145.864 273.158 145.864ZM281.368 132.818V143H280.195V132.818H281.368ZM286.719 143.159C285.983 143.159 285.348 142.997 284.815 142.672C284.285 142.344 283.875 141.886 283.587 141.3C283.302 140.71 283.159 140.024 283.159 139.241C283.159 138.459 283.302 137.77 283.587 137.173C283.875 136.573 284.276 136.106 284.79 135.771C285.307 135.433 285.91 135.264 286.6 135.264C286.997 135.264 287.39 135.33 287.778 135.463C288.166 135.596 288.519 135.811 288.837 136.109C289.155 136.404 289.409 136.795 289.597 137.283C289.786 137.77 289.881 138.37 289.881 139.082V139.58H283.994V138.565H288.688C288.688 138.134 288.602 137.75 288.429 137.412C288.26 137.074 288.018 136.807 287.703 136.612C287.392 136.416 287.024 136.318 286.6 136.318C286.132 136.318 285.728 136.434 285.387 136.666C285.048 136.895 284.788 137.193 284.606 137.561C284.424 137.929 284.333 138.323 284.333 138.744V139.42C284.333 139.997 284.432 140.486 284.631 140.887C284.833 141.285 285.113 141.588 285.471 141.797C285.829 142.002 286.245 142.105 286.719 142.105C287.027 142.105 287.306 142.062 287.554 141.976C287.806 141.886 288.023 141.754 288.205 141.578C288.388 141.399 288.529 141.177 288.628 140.912L289.762 141.23C289.642 141.615 289.442 141.953 289.16 142.244C288.878 142.533 288.53 142.758 288.116 142.92C287.702 143.08 287.236 143.159 286.719 143.159ZM295.762 143V132.818H296.936V136.577H297.035C297.121 136.444 297.24 136.275 297.393 136.07C297.549 135.861 297.771 135.675 298.059 135.513C298.351 135.347 298.745 135.264 299.242 135.264C299.885 135.264 300.452 135.425 300.943 135.746C301.433 136.068 301.816 136.524 302.091 137.114C302.366 137.704 302.504 138.4 302.504 139.202C302.504 140.01 302.366 140.711 302.091 141.305C301.816 141.895 301.435 142.352 300.948 142.677C300.46 142.998 299.899 143.159 299.262 143.159C298.772 143.159 298.379 143.078 298.084 142.915C297.789 142.75 297.562 142.562 297.403 142.354C297.244 142.142 297.121 141.966 297.035 141.827H296.896V143H295.762ZM296.916 139.182C296.916 139.759 297 140.267 297.169 140.708C297.338 141.146 297.585 141.489 297.91 141.737C298.235 141.982 298.633 142.105 299.103 142.105C299.594 142.105 300.003 141.976 300.331 141.717C300.663 141.455 300.911 141.104 301.077 140.663C301.246 140.219 301.33 139.725 301.33 139.182C301.33 138.645 301.248 138.161 301.082 137.73C300.919 137.296 300.673 136.953 300.341 136.701C300.013 136.446 299.6 136.318 299.103 136.318C298.626 136.318 298.225 136.439 297.9 136.681C297.575 136.92 297.33 137.254 297.164 137.685C296.999 138.113 296.916 138.612 296.916 139.182ZM304.298 143V135.364H305.432V136.517H305.512C305.651 136.139 305.903 135.833 306.267 135.597C306.632 135.362 307.043 135.244 307.5 135.244C307.586 135.244 307.694 135.246 307.823 135.249C307.953 135.253 308.05 135.258 308.117 135.264V136.457C308.077 136.447 307.986 136.433 307.843 136.413C307.704 136.389 307.557 136.378 307.401 136.378C307.03 136.378 306.698 136.456 306.406 136.612C306.118 136.764 305.889 136.976 305.72 137.248C305.555 137.516 305.472 137.823 305.472 138.168V143H304.298ZM311.755 143.179C311.271 143.179 310.832 143.088 310.437 142.906C310.043 142.72 309.73 142.453 309.498 142.105C309.266 141.754 309.15 141.33 309.15 140.832C309.15 140.395 309.236 140.04 309.408 139.768C309.58 139.493 309.811 139.278 310.099 139.122C310.387 138.966 310.706 138.85 311.054 138.774C311.405 138.695 311.758 138.632 312.113 138.585C312.577 138.526 312.953 138.481 313.241 138.451C313.533 138.418 313.745 138.363 313.877 138.287C314.013 138.211 314.081 138.078 314.081 137.889V137.849C314.081 137.359 313.947 136.978 313.679 136.706C313.413 136.434 313.011 136.298 312.471 136.298C311.91 136.298 311.471 136.421 311.153 136.666C310.835 136.911 310.611 137.173 310.482 137.452L309.368 137.054C309.567 136.59 309.832 136.229 310.164 135.97C310.498 135.708 310.863 135.526 311.257 135.423C311.655 135.317 312.046 135.264 312.431 135.264C312.676 135.264 312.958 135.294 313.276 135.354C313.597 135.41 313.907 135.528 314.206 135.707C314.507 135.886 314.757 136.156 314.956 136.517C315.155 136.878 315.255 137.362 315.255 137.969V143H314.081V141.966H314.022C313.942 142.132 313.81 142.309 313.624 142.498C313.438 142.687 313.191 142.848 312.883 142.98C312.575 143.113 312.199 143.179 311.755 143.179ZM311.934 142.125C312.398 142.125 312.789 142.034 313.107 141.852C313.428 141.669 313.67 141.434 313.833 141.146C313.998 140.857 314.081 140.554 314.081 140.236V139.162C314.032 139.222 313.922 139.276 313.753 139.326C313.587 139.372 313.395 139.414 313.176 139.45C312.961 139.483 312.751 139.513 312.545 139.54C312.343 139.563 312.179 139.583 312.053 139.599C311.748 139.639 311.463 139.704 311.198 139.793C310.936 139.879 310.724 140.01 310.561 140.186C310.402 140.358 310.323 140.594 310.323 140.892C310.323 141.3 310.474 141.608 310.775 141.817C311.08 142.022 311.466 142.125 311.934 142.125ZM318.569 138.406V143H317.396V135.364H318.53V136.557H318.629C318.808 136.169 319.08 135.857 319.444 135.622C319.809 135.384 320.28 135.264 320.856 135.264C321.373 135.264 321.826 135.37 322.214 135.582C322.601 135.791 322.903 136.109 323.118 136.537C323.334 136.961 323.442 137.498 323.442 138.148V143H322.268V138.227C322.268 137.627 322.113 137.16 321.801 136.825C321.489 136.487 321.062 136.318 320.518 136.318C320.144 136.318 319.809 136.399 319.514 136.562C319.222 136.724 318.992 136.961 318.823 137.273C318.654 137.584 318.569 137.962 318.569 138.406ZM328.469 143.159C327.833 143.159 327.271 142.998 326.784 142.677C326.297 142.352 325.915 141.895 325.64 141.305C325.365 140.711 325.228 140.01 325.228 139.202C325.228 138.4 325.365 137.704 325.64 137.114C325.915 136.524 326.298 136.068 326.789 135.746C327.279 135.425 327.846 135.264 328.489 135.264C328.986 135.264 329.379 135.347 329.667 135.513C329.959 135.675 330.181 135.861 330.333 136.07C330.489 136.275 330.61 136.444 330.696 136.577H330.796V132.818H331.969V143H330.836V141.827H330.696C330.61 141.966 330.488 142.142 330.328 142.354C330.169 142.562 329.942 142.75 329.647 142.915C329.352 143.078 328.96 143.159 328.469 143.159ZM328.628 142.105C329.099 142.105 329.497 141.982 329.821 141.737C330.146 141.489 330.393 141.146 330.562 140.708C330.731 140.267 330.816 139.759 330.816 139.182C330.816 138.612 330.733 138.113 330.567 137.685C330.401 137.254 330.156 136.92 329.831 136.681C329.507 136.439 329.105 136.318 328.628 136.318C328.131 136.318 327.717 136.446 327.385 136.701C327.057 136.953 326.81 137.296 326.645 137.73C326.482 138.161 326.401 138.645 326.401 139.182C326.401 139.725 326.484 140.219 326.65 140.663C326.819 141.104 327.067 141.455 327.395 141.717C327.727 141.976 328.138 142.105 328.628 142.105ZM341.619 135.364V136.358H337.502V135.364H341.619ZM338.735 143V134.31C338.735 133.872 338.838 133.508 339.044 133.216C339.249 132.924 339.516 132.705 339.844 132.56C340.172 132.414 340.519 132.341 340.883 132.341C341.172 132.341 341.407 132.364 341.589 132.411C341.771 132.457 341.907 132.5 341.997 132.54L341.659 133.554C341.599 133.534 341.516 133.509 341.41 133.479C341.307 133.45 341.172 133.435 341.002 133.435C340.615 133.435 340.335 133.532 340.162 133.728C339.993 133.924 339.909 134.21 339.909 134.588V143H338.735ZM346.051 143.159C345.362 143.159 344.757 142.995 344.237 142.667C343.719 142.339 343.315 141.88 343.023 141.29C342.735 140.7 342.591 140.01 342.591 139.222C342.591 138.426 342.735 137.732 343.023 137.138C343.315 136.545 343.719 136.085 344.237 135.756C344.757 135.428 345.362 135.264 346.051 135.264C346.741 135.264 347.344 135.428 347.861 135.756C348.381 136.085 348.786 136.545 349.074 137.138C349.366 137.732 349.511 138.426 349.511 139.222C349.511 140.01 349.366 140.7 349.074 141.29C348.786 141.88 348.381 142.339 347.861 142.667C347.344 142.995 346.741 143.159 346.051 143.159ZM346.051 142.105C346.575 142.105 347.006 141.971 347.344 141.702C347.682 141.434 347.932 141.081 348.094 140.643C348.257 140.206 348.338 139.732 348.338 139.222C348.338 138.711 348.257 138.236 348.094 137.795C347.932 137.354 347.682 136.998 347.344 136.726C347.006 136.454 346.575 136.318 346.051 136.318C345.527 136.318 345.097 136.454 344.759 136.726C344.42 136.998 344.17 137.354 344.008 137.795C343.845 138.236 343.764 138.711 343.764 139.222C343.764 139.732 343.845 140.206 344.008 140.643C344.17 141.081 344.42 141.434 344.759 141.702C345.097 141.971 345.527 142.105 346.051 142.105ZM351.302 143V135.364H352.436V136.517H352.515C352.655 136.139 352.907 135.833 353.271 135.597C353.636 135.362 354.047 135.244 354.504 135.244C354.59 135.244 354.698 135.246 354.827 135.249C354.956 135.253 355.054 135.258 355.121 135.264V136.457C355.081 136.447 354.99 136.433 354.847 136.413C354.708 136.389 354.56 136.378 354.405 136.378C354.033 136.378 353.702 136.456 353.41 136.612C353.122 136.764 352.893 136.976 352.724 137.248C352.559 137.516 352.476 137.823 352.476 138.168V143H351.302ZM362.179 143L359.852 135.364H361.085L362.736 141.21H362.815L364.446 135.364H365.699L367.31 141.19H367.389L369.04 135.364H370.273L367.946 143H366.793L365.122 137.134H365.003L363.332 143H362.179ZM374.666 143.159C373.977 143.159 373.372 142.995 372.852 142.667C372.335 142.339 371.93 141.88 371.639 141.29C371.35 140.7 371.206 140.01 371.206 139.222C371.206 138.426 371.35 137.732 371.639 137.138C371.93 136.545 372.335 136.085 372.852 135.756C373.372 135.428 373.977 135.264 374.666 135.264C375.356 135.264 375.959 135.428 376.476 135.756C376.996 136.085 377.401 136.545 377.689 137.138C377.981 137.732 378.127 138.426 378.127 139.222C378.127 140.01 377.981 140.7 377.689 141.29C377.401 141.88 376.996 142.339 376.476 142.667C375.959 142.995 375.356 143.159 374.666 143.159ZM374.666 142.105C375.19 142.105 375.621 141.971 375.959 141.702C376.297 141.434 376.547 141.081 376.71 140.643C376.872 140.206 376.953 139.732 376.953 139.222C376.953 138.711 376.872 138.236 376.71 137.795C376.547 137.354 376.297 136.998 375.959 136.726C375.621 136.454 375.19 136.318 374.666 136.318C374.143 136.318 373.712 136.454 373.374 136.726C373.036 136.998 372.785 137.354 372.623 137.795C372.461 138.236 372.379 138.711 372.379 139.222C372.379 139.732 372.461 140.206 372.623 140.643C372.785 141.081 373.036 141.434 373.374 141.702C373.712 141.971 374.143 142.105 374.666 142.105ZM379.918 143V135.364H381.051V136.557H381.151C381.31 136.149 381.567 135.833 381.921 135.607C382.276 135.379 382.702 135.264 383.199 135.264C383.703 135.264 384.122 135.379 384.457 135.607C384.795 135.833 385.058 136.149 385.247 136.557H385.327C385.522 136.162 385.816 135.849 386.207 135.617C386.598 135.382 387.067 135.264 387.614 135.264C388.296 135.264 388.855 135.478 389.289 135.906C389.723 136.33 389.94 136.991 389.94 137.889V143H388.767V137.889C388.767 137.326 388.613 136.923 388.305 136.681C387.996 136.439 387.634 136.318 387.216 136.318C386.679 136.318 386.263 136.481 385.968 136.805C385.673 137.127 385.526 137.535 385.526 138.028V143H384.332V137.77C384.332 137.336 384.192 136.986 383.91 136.721C383.628 136.452 383.265 136.318 382.821 136.318C382.516 136.318 382.231 136.399 381.966 136.562C381.704 136.724 381.492 136.95 381.33 137.238C381.17 137.523 381.091 137.853 381.091 138.227V143H379.918ZM395.287 143.159C394.551 143.159 393.917 142.997 393.383 142.672C392.853 142.344 392.444 141.886 392.155 141.3C391.87 140.71 391.728 140.024 391.728 139.241C391.728 138.459 391.87 137.77 392.155 137.173C392.444 136.573 392.845 136.106 393.358 135.771C393.875 135.433 394.479 135.264 395.168 135.264C395.566 135.264 395.958 135.33 396.346 135.463C396.734 135.596 397.087 135.811 397.405 136.109C397.723 136.404 397.977 136.795 398.166 137.283C398.355 137.77 398.449 138.37 398.449 139.082V139.58H392.563V138.565H397.256C397.256 138.134 397.17 137.75 396.998 137.412C396.828 137.074 396.587 136.807 396.272 136.612C395.96 136.416 395.592 136.318 395.168 136.318C394.701 136.318 394.296 136.434 393.955 136.666C393.617 136.895 393.357 137.193 393.174 137.561C392.992 137.929 392.901 138.323 392.901 138.744V139.42C392.901 139.997 393 140.486 393.199 140.887C393.401 141.285 393.681 141.588 394.039 141.797C394.397 142.002 394.813 142.105 395.287 142.105C395.596 142.105 395.874 142.062 396.123 141.976C396.374 141.886 396.592 141.754 396.774 141.578C396.956 141.399 397.097 141.177 397.196 140.912L398.33 141.23C398.211 141.615 398.01 141.953 397.728 142.244C397.447 142.533 397.099 142.758 396.684 142.92C396.27 143.08 395.804 143.159 395.287 143.159ZM401.407 138.406V143H400.234V135.364H401.368V136.557H401.467C401.646 136.169 401.918 135.857 402.282 135.622C402.647 135.384 403.118 135.264 403.694 135.264C404.211 135.264 404.664 135.37 405.051 135.582C405.439 135.791 405.741 136.109 405.956 136.537C406.172 136.961 406.279 137.498 406.279 138.148V143H405.106V138.227C405.106 137.627 404.95 137.16 404.639 136.825C404.327 136.487 403.9 136.318 403.356 136.318C402.982 136.318 402.647 136.399 402.352 136.562C402.06 136.724 401.83 136.961 401.661 137.273C401.492 137.584 401.407 137.962 401.407 138.406ZM414.091 143L411.764 135.364H412.997L414.648 141.21H414.727L416.358 135.364H417.611L419.222 141.19H419.301L420.952 135.364H422.185L419.858 143H418.705L417.034 137.134H416.915L415.244 143H414.091ZM424.909 138.406V143H423.736V132.818H424.909V136.557H425.009C425.188 136.162 425.456 135.849 425.814 135.617C426.175 135.382 426.656 135.264 427.256 135.264C427.776 135.264 428.232 135.369 428.623 135.577C429.014 135.783 429.317 136.099 429.533 136.527C429.752 136.951 429.861 137.491 429.861 138.148V143H428.688V138.227C428.688 137.621 428.53 137.152 428.215 136.82C427.904 136.486 427.471 136.318 426.918 136.318C426.533 136.318 426.189 136.399 425.884 136.562C425.582 136.724 425.343 136.961 425.168 137.273C424.995 137.584 424.909 137.962 424.909 138.406ZM435.11 143.159C434.42 143.159 433.815 142.995 433.295 142.667C432.778 142.339 432.374 141.88 432.082 141.29C431.794 140.7 431.65 140.01 431.65 139.222C431.65 138.426 431.794 137.732 432.082 137.138C432.374 136.545 432.778 136.085 433.295 135.756C433.815 135.428 434.42 135.264 435.11 135.264C435.799 135.264 436.402 135.428 436.919 135.756C437.44 136.085 437.844 136.545 438.132 137.138C438.424 137.732 438.57 138.426 438.57 139.222C438.57 140.01 438.424 140.7 438.132 141.29C437.844 141.88 437.44 142.339 436.919 142.667C436.402 142.995 435.799 143.159 435.11 143.159ZM435.11 142.105C435.633 142.105 436.064 141.971 436.402 141.702C436.74 141.434 436.991 141.081 437.153 140.643C437.315 140.206 437.397 139.732 437.397 139.222C437.397 138.711 437.315 138.236 437.153 137.795C436.991 137.354 436.74 136.998 436.402 136.726C436.064 136.454 435.633 136.318 435.11 136.318C434.586 136.318 434.155 136.454 433.817 136.726C433.479 136.998 433.229 137.354 433.066 137.795C432.904 138.236 432.823 138.711 432.823 139.222C432.823 139.732 432.904 140.206 433.066 140.643C433.229 141.081 433.479 141.434 433.817 141.702C434.155 141.971 434.586 142.105 435.11 142.105ZM447.182 143.159C446.546 143.159 445.984 142.998 445.497 142.677C445.009 142.352 444.628 141.895 444.353 141.305C444.078 140.711 443.941 140.01 443.941 139.202C443.941 138.4 444.078 137.704 444.353 137.114C444.628 136.524 445.011 136.068 445.502 135.746C445.992 135.425 446.559 135.264 447.202 135.264C447.699 135.264 448.092 135.347 448.38 135.513C448.672 135.675 448.894 135.861 449.046 136.07C449.202 136.275 449.323 136.444 449.409 136.577H449.509V132.818H450.682V143H449.548V141.827H449.409C449.323 141.966 449.2 142.142 449.041 142.354C448.882 142.562 448.655 142.75 448.36 142.915C448.065 143.078 447.673 143.159 447.182 143.159ZM447.341 142.105C447.812 142.105 448.209 141.982 448.534 141.737C448.859 141.489 449.106 141.146 449.275 140.708C449.444 140.267 449.529 139.759 449.529 139.182C449.529 138.612 449.446 138.113 449.28 137.685C449.114 137.254 448.869 136.92 448.544 136.681C448.219 136.439 447.818 136.318 447.341 136.318C446.844 136.318 446.43 136.446 446.098 136.701C445.77 136.953 445.523 137.296 445.357 137.73C445.195 138.161 445.114 138.645 445.114 139.182C445.114 139.725 445.197 140.219 445.362 140.663C445.531 141.104 445.78 141.455 446.108 141.717C446.44 141.976 446.851 142.105 447.341 142.105ZM456.096 143.159C455.407 143.159 454.802 142.995 454.281 142.667C453.764 142.339 453.36 141.88 453.068 141.29C452.78 140.7 452.636 140.01 452.636 139.222C452.636 138.426 452.78 137.732 453.068 137.138C453.36 136.545 453.764 136.085 454.281 135.756C454.802 135.428 455.407 135.264 456.096 135.264C456.785 135.264 457.389 135.428 457.906 135.756C458.426 136.085 458.83 136.545 459.119 137.138C459.41 137.732 459.556 138.426 459.556 139.222C459.556 140.01 459.41 140.7 459.119 141.29C458.83 141.88 458.426 142.339 457.906 142.667C457.389 142.995 456.785 143.159 456.096 143.159ZM456.096 142.105C456.62 142.105 457.051 141.971 457.389 141.702C457.727 141.434 457.977 141.081 458.139 140.643C458.302 140.206 458.383 139.732 458.383 139.222C458.383 138.711 458.302 138.236 458.139 137.795C457.977 137.354 457.727 136.998 457.389 136.726C457.051 136.454 456.62 136.318 456.096 136.318C455.572 136.318 455.142 136.454 454.803 136.726C454.465 136.998 454.215 137.354 454.053 137.795C453.89 138.236 453.809 138.711 453.809 139.222C453.809 139.732 453.89 140.206 454.053 140.643C454.215 141.081 454.465 141.434 454.803 141.702C455.142 141.971 455.572 142.105 456.096 142.105ZM462.521 138.406V143H461.347V135.364H462.481V136.557H462.58C462.759 136.169 463.031 135.857 463.396 135.622C463.76 135.384 464.231 135.264 464.808 135.264C465.325 135.264 465.777 135.37 466.165 135.582C466.553 135.791 466.854 136.109 467.07 136.537C467.285 136.961 467.393 137.498 467.393 138.148V143H466.219V138.227C466.219 137.627 466.064 137.16 465.752 136.825C465.441 136.487 465.013 136.318 464.469 136.318C464.095 136.318 463.76 136.399 463.465 136.562C463.174 136.724 462.943 136.961 462.774 137.273C462.605 137.584 462.521 137.962 462.521 138.406ZM470.551 132.818V136.318H469.457V132.818H470.551ZM475.961 135.364V136.358H472.004V135.364H475.961ZM473.157 133.534H474.331V140.812C474.331 141.144 474.379 141.393 474.475 141.558C474.574 141.721 474.7 141.83 474.853 141.886C475.008 141.939 475.172 141.966 475.345 141.966C475.474 141.966 475.58 141.959 475.663 141.946C475.746 141.929 475.812 141.916 475.862 141.906L476.1 142.96C476.021 142.99 475.91 143.02 475.767 143.05C475.625 143.083 475.444 143.099 475.225 143.099C474.894 143.099 474.569 143.028 474.251 142.886C473.936 142.743 473.674 142.526 473.466 142.234C473.26 141.943 473.157 141.575 473.157 141.131V133.534ZM481.664 135.364H482.837V143.557C482.837 144.027 482.756 144.435 482.593 144.78C482.434 145.125 482.192 145.391 481.868 145.58C481.546 145.769 481.14 145.864 480.65 145.864C480.61 145.864 480.57 145.864 480.53 145.864C480.49 145.864 480.451 145.864 480.411 145.864V144.77C480.451 144.77 480.487 144.77 480.52 144.77C480.553 144.77 480.59 144.77 480.63 144.77C480.988 144.77 481.249 144.664 481.415 144.452C481.581 144.243 481.664 143.945 481.664 143.557V135.364ZM482.24 134.091C482.012 134.091 481.815 134.013 481.649 133.857C481.486 133.701 481.405 133.514 481.405 133.295C481.405 133.077 481.486 132.889 481.649 132.734C481.815 132.578 482.012 132.5 482.24 132.5C482.469 132.5 482.665 132.578 482.827 132.734C482.993 132.889 483.076 133.077 483.076 133.295C483.076 133.514 482.993 133.701 482.827 133.857C482.665 134.013 482.469 134.091 482.24 134.091ZM489.798 139.878V135.364H490.972V143H489.798V141.707H489.719C489.54 142.095 489.262 142.425 488.884 142.697C488.506 142.965 488.029 143.099 487.452 143.099C486.975 143.099 486.55 142.995 486.179 142.786C485.808 142.574 485.516 142.256 485.304 141.832C485.092 141.404 484.986 140.866 484.986 140.216V135.364H486.159V140.136C486.159 140.693 486.315 141.137 486.627 141.469C486.941 141.8 487.343 141.966 487.83 141.966C488.121 141.966 488.418 141.891 488.72 141.742C489.025 141.593 489.28 141.364 489.485 141.056C489.694 140.748 489.798 140.355 489.798 139.878ZM498.53 137.074L497.476 137.372C497.41 137.196 497.312 137.026 497.183 136.86C497.057 136.691 496.884 136.552 496.665 136.442C496.447 136.333 496.167 136.278 495.825 136.278C495.358 136.278 494.969 136.386 494.657 136.602C494.349 136.814 494.195 137.084 494.195 137.412C494.195 137.704 494.301 137.934 494.513 138.103C494.725 138.272 495.056 138.413 495.507 138.526L496.641 138.804C497.323 138.97 497.832 139.223 498.167 139.565C498.502 139.903 498.669 140.339 498.669 140.872C498.669 141.31 498.543 141.701 498.291 142.045C498.043 142.39 497.695 142.662 497.247 142.861C496.8 143.06 496.279 143.159 495.686 143.159C494.907 143.159 494.263 142.99 493.752 142.652C493.242 142.314 492.919 141.82 492.783 141.17L493.896 140.892C494.002 141.303 494.203 141.611 494.498 141.817C494.796 142.022 495.186 142.125 495.666 142.125C496.213 142.125 496.647 142.009 496.969 141.777C497.294 141.542 497.456 141.26 497.456 140.932C497.456 140.667 497.363 140.445 497.178 140.266C496.992 140.083 496.707 139.947 496.322 139.858L495.05 139.56C494.35 139.394 493.837 139.137 493.509 138.789C493.184 138.438 493.021 137.999 493.021 137.472C493.021 137.041 493.142 136.66 493.384 136.328C493.629 135.997 493.963 135.737 494.384 135.548C494.808 135.359 495.288 135.264 495.825 135.264C496.581 135.264 497.174 135.43 497.605 135.761C498.039 136.093 498.348 136.53 498.53 137.074ZM503.756 135.364V136.358H499.799V135.364H503.756ZM500.952 133.534H502.126V140.812C502.126 141.144 502.174 141.393 502.27 141.558C502.369 141.721 502.495 141.83 502.648 141.886C502.803 141.939 502.967 141.966 503.14 141.966C503.269 141.966 503.375 141.959 503.458 141.946C503.541 141.929 503.607 141.916 503.657 141.906L503.895 142.96C503.816 142.99 503.705 143.02 503.562 143.05C503.42 143.083 503.239 143.099 503.02 143.099C502.689 143.099 502.364 143.028 502.046 142.886C501.731 142.743 501.469 142.526 501.26 142.234C501.055 141.943 500.952 141.575 500.952 141.131V133.534ZM511.189 143L508.862 135.364H510.095L511.746 141.21H511.825L513.456 135.364H514.709L516.319 141.19H516.399L518.05 135.364H519.282L516.956 143H515.802L514.132 137.134H514.013L512.342 143H511.189ZM523.081 143.179C522.597 143.179 522.158 143.088 521.763 142.906C521.369 142.72 521.056 142.453 520.824 142.105C520.592 141.754 520.476 141.33 520.476 140.832C520.476 140.395 520.562 140.04 520.734 139.768C520.907 139.493 521.137 139.278 521.425 139.122C521.714 138.966 522.032 138.85 522.38 138.774C522.731 138.695 523.084 138.632 523.439 138.585C523.903 138.526 524.279 138.481 524.567 138.451C524.859 138.418 525.071 138.363 525.204 138.287C525.34 138.211 525.407 138.078 525.407 137.889V137.849C525.407 137.359 525.273 136.978 525.005 136.706C524.74 136.434 524.337 136.298 523.797 136.298C523.237 136.298 522.797 136.421 522.479 136.666C522.161 136.911 521.937 137.173 521.808 137.452L520.694 137.054C520.893 136.59 521.158 136.229 521.49 135.97C521.825 135.708 522.189 135.526 522.584 135.423C522.981 135.317 523.372 135.264 523.757 135.264C524.002 135.264 524.284 135.294 524.602 135.354C524.924 135.41 525.233 135.528 525.532 135.707C525.833 135.886 526.084 136.156 526.282 136.517C526.481 136.878 526.581 137.362 526.581 137.969V143H525.407V141.966H525.348C525.268 142.132 525.136 142.309 524.95 142.498C524.765 142.687 524.518 142.848 524.209 142.98C523.901 143.113 523.525 143.179 523.081 143.179ZM523.26 142.125C523.724 142.125 524.115 142.034 524.433 141.852C524.755 141.669 524.997 141.434 525.159 141.146C525.325 140.857 525.407 140.554 525.407 140.236V139.162C525.358 139.222 525.248 139.276 525.079 139.326C524.914 139.372 524.721 139.414 524.503 139.45C524.287 139.483 524.077 139.513 523.871 139.54C523.669 139.563 523.505 139.583 523.379 139.599C523.074 139.639 522.789 139.704 522.524 139.793C522.262 139.879 522.05 140.01 521.888 140.186C521.729 140.358 521.649 140.594 521.649 140.892C521.649 141.3 521.8 141.608 522.101 141.817C522.406 142.022 522.792 142.125 523.26 142.125ZM529.896 138.406V143H528.722V135.364H529.856V136.557H529.955C530.134 136.169 530.406 135.857 530.771 135.622C531.135 135.384 531.606 135.264 532.183 135.264C532.7 135.264 533.152 135.37 533.54 135.582C533.928 135.791 534.229 136.109 534.445 136.537C534.66 136.961 534.768 137.498 534.768 138.148V143H533.594V138.227C533.594 137.627 533.439 137.16 533.127 136.825C532.816 136.487 532.388 136.318 531.844 136.318C531.47 136.318 531.135 136.399 530.84 136.562C530.549 136.724 530.318 136.961 530.149 137.273C529.98 137.584 529.896 137.962 529.896 138.406ZM540.233 135.364V136.358H536.275V135.364H540.233ZM537.429 133.534H538.602V140.812C538.602 141.144 538.65 141.393 538.746 141.558C538.846 141.721 538.972 141.83 539.124 141.886C539.28 141.939 539.444 141.966 539.616 141.966C539.746 141.966 539.852 141.959 539.934 141.946C540.017 141.929 540.084 141.916 540.133 141.906L540.372 142.96C540.292 142.99 540.181 143.02 540.039 143.05C539.896 143.083 539.716 143.099 539.497 143.099C539.166 143.099 538.841 143.028 538.523 142.886C538.208 142.743 537.946 142.526 537.737 142.234C537.532 141.943 537.429 141.575 537.429 141.131V133.534ZM549.256 135.364V136.358H545.299V135.364H549.256ZM546.452 133.534H547.626V140.812C547.626 141.144 547.674 141.393 547.77 141.558C547.869 141.721 547.995 141.83 548.148 141.886C548.303 141.939 548.467 141.966 548.64 141.966C548.769 141.966 548.875 141.959 548.958 141.946C549.041 141.929 549.107 141.916 549.157 141.906L549.395 142.96C549.316 142.99 549.205 143.02 549.062 143.05C548.92 143.083 548.739 143.099 548.52 143.099C548.189 143.099 547.864 143.028 547.546 142.886C547.231 142.743 546.969 142.526 546.76 142.234C546.555 141.943 546.452 141.575 546.452 141.131V133.534ZM554.041 143.159C553.352 143.159 552.747 142.995 552.227 142.667C551.71 142.339 551.305 141.88 551.014 141.29C550.725 140.7 550.581 140.01 550.581 139.222C550.581 138.426 550.725 137.732 551.014 137.138C551.305 136.545 551.71 136.085 552.227 135.756C552.747 135.428 553.352 135.264 554.041 135.264C554.731 135.264 555.334 135.428 555.851 135.756C556.371 136.085 556.776 136.545 557.064 137.138C557.356 137.732 557.502 138.426 557.502 139.222C557.502 140.01 557.356 140.7 557.064 141.29C556.776 141.88 556.371 142.339 555.851 142.667C555.334 142.995 554.731 143.159 554.041 143.159ZM554.041 142.105C554.565 142.105 554.996 141.971 555.334 141.702C555.672 141.434 555.922 141.081 556.085 140.643C556.247 140.206 556.328 139.732 556.328 139.222C556.328 138.711 556.247 138.236 556.085 137.795C555.922 137.354 555.672 136.998 555.334 136.726C554.996 136.454 554.565 136.318 554.041 136.318C553.518 136.318 553.087 136.454 552.749 136.726C552.411 136.998 552.16 137.354 551.998 137.795C551.836 138.236 551.754 138.711 551.754 139.222C551.754 139.732 551.836 140.206 551.998 140.643C552.16 141.081 552.411 141.434 552.749 141.702C553.087 141.971 553.518 142.105 554.041 142.105ZM563.389 143V132.818H564.562V136.577H564.662C564.748 136.444 564.867 136.275 565.02 136.07C565.176 135.861 565.398 135.675 565.686 135.513C565.978 135.347 566.372 135.264 566.869 135.264C567.512 135.264 568.079 135.425 568.57 135.746C569.06 136.068 569.443 136.524 569.718 137.114C569.993 137.704 570.131 138.4 570.131 139.202C570.131 140.01 569.993 140.711 569.718 141.305C569.443 141.895 569.062 142.352 568.575 142.677C568.087 142.998 567.526 143.159 566.889 143.159C566.399 143.159 566.006 143.078 565.711 142.915C565.416 142.75 565.189 142.562 565.03 142.354C564.871 142.142 564.748 141.966 564.662 141.827H564.523V143H563.389ZM564.543 139.182C564.543 139.759 564.627 140.267 564.796 140.708C564.965 141.146 565.212 141.489 565.537 141.737C565.862 141.982 566.259 142.105 566.73 142.105C567.221 142.105 567.63 141.976 567.958 141.717C568.29 141.455 568.538 141.104 568.704 140.663C568.873 140.219 568.957 139.725 568.957 139.182C568.957 138.645 568.875 138.161 568.709 137.73C568.546 137.296 568.299 136.953 567.968 136.701C567.64 136.446 567.227 136.318 566.73 136.318C566.253 136.318 565.852 136.439 565.527 136.681C565.202 136.92 564.957 137.254 564.791 137.685C564.625 138.113 564.543 138.612 564.543 139.182ZM575.127 143.159C574.391 143.159 573.757 142.997 573.223 142.672C572.693 142.344 572.283 141.886 571.995 141.3C571.71 140.71 571.567 140.024 571.567 139.241C571.567 138.459 571.71 137.77 571.995 137.173C572.283 136.573 572.684 136.106 573.198 135.771C573.715 135.433 574.318 135.264 575.008 135.264C575.406 135.264 575.798 135.33 576.186 135.463C576.574 135.596 576.927 135.811 577.245 136.109C577.563 136.404 577.817 136.795 578.006 137.283C578.195 137.77 578.289 138.37 578.289 139.082V139.58H572.403V138.565H577.096C577.096 138.134 577.01 137.75 576.837 137.412C576.668 137.074 576.426 136.807 576.112 136.612C575.8 136.416 575.432 136.318 575.008 136.318C574.54 136.318 574.136 136.434 573.795 136.666C573.457 136.895 573.196 137.193 573.014 137.561C572.832 137.929 572.741 138.323 572.741 138.744V139.42C572.741 139.997 572.84 140.486 573.039 140.887C573.241 141.285 573.521 141.588 573.879 141.797C574.237 142.002 574.653 142.105 575.127 142.105C575.435 142.105 575.714 142.062 575.962 141.976C576.214 141.886 576.431 141.754 576.614 141.578C576.796 141.399 576.937 141.177 577.036 140.912L578.17 141.23C578.05 141.615 577.85 141.953 577.568 142.244C577.286 142.533 576.938 142.758 576.524 142.92C576.11 143.08 575.644 143.159 575.127 143.159ZM270.621 163.364V164.358H266.504V163.364H270.621ZM267.737 171V162.31C267.737 161.872 267.84 161.508 268.046 161.216C268.251 160.924 268.518 160.705 268.846 160.56C269.174 160.414 269.521 160.341 269.885 160.341C270.173 160.341 270.409 160.364 270.591 160.411C270.773 160.457 270.909 160.5 270.999 160.54L270.661 161.554C270.601 161.534 270.518 161.509 270.412 161.479C270.309 161.45 270.173 161.435 270.004 161.435C269.617 161.435 269.337 161.532 269.164 161.728C268.995 161.924 268.911 162.21 268.911 162.588V171H267.737ZM274.294 171.179C273.81 171.179 273.371 171.088 272.976 170.906C272.582 170.72 272.269 170.453 272.037 170.105C271.805 169.754 271.689 169.33 271.689 168.832C271.689 168.395 271.775 168.04 271.947 167.768C272.119 167.493 272.35 167.278 272.638 167.122C272.926 166.966 273.245 166.85 273.593 166.774C273.944 166.695 274.297 166.632 274.652 166.585C275.116 166.526 275.492 166.481 275.78 166.451C276.072 166.418 276.284 166.363 276.417 166.287C276.552 166.211 276.62 166.078 276.62 165.889V165.849C276.62 165.359 276.486 164.978 276.218 164.706C275.953 164.434 275.55 164.298 275.01 164.298C274.449 164.298 274.01 164.421 273.692 164.666C273.374 164.911 273.15 165.173 273.021 165.452L271.907 165.054C272.106 164.59 272.371 164.229 272.703 163.97C273.038 163.708 273.402 163.526 273.797 163.423C274.194 163.317 274.585 163.264 274.97 163.264C275.215 163.264 275.497 163.294 275.815 163.354C276.136 163.41 276.446 163.528 276.745 163.707C277.046 163.886 277.297 164.156 277.495 164.517C277.694 164.878 277.794 165.362 277.794 165.969V171H276.62V169.966H276.561C276.481 170.132 276.349 170.309 276.163 170.498C275.977 170.687 275.73 170.848 275.422 170.98C275.114 171.113 274.738 171.179 274.294 171.179ZM274.473 170.125C274.937 170.125 275.328 170.034 275.646 169.852C275.967 169.669 276.209 169.434 276.372 169.146C276.538 168.857 276.62 168.554 276.62 168.236V167.162C276.571 167.222 276.461 167.276 276.292 167.326C276.127 167.372 275.934 167.414 275.716 167.45C275.5 167.483 275.29 167.513 275.084 167.54C274.882 167.563 274.718 167.583 274.592 167.599C274.287 167.639 274.002 167.704 273.737 167.793C273.475 167.879 273.263 168.01 273.1 168.186C272.941 168.358 272.862 168.594 272.862 168.892C272.862 169.3 273.013 169.608 273.314 169.817C273.619 170.022 274.005 170.125 274.473 170.125ZM285.344 165.074L284.29 165.372C284.224 165.196 284.126 165.026 283.997 164.86C283.871 164.691 283.699 164.552 283.48 164.442C283.261 164.333 282.981 164.278 282.64 164.278C282.172 164.278 281.783 164.386 281.471 164.602C281.163 164.814 281.009 165.084 281.009 165.412C281.009 165.704 281.115 165.934 281.327 166.103C281.539 166.272 281.871 166.413 282.322 166.526L283.455 166.804C284.138 166.97 284.647 167.223 284.981 167.565C285.316 167.903 285.483 168.339 285.483 168.872C285.483 169.31 285.358 169.701 285.106 170.045C284.857 170.39 284.509 170.662 284.062 170.861C283.614 171.06 283.094 171.159 282.501 171.159C281.722 171.159 281.077 170.99 280.567 170.652C280.056 170.314 279.733 169.82 279.597 169.17L280.711 168.892C280.817 169.303 281.017 169.611 281.312 169.817C281.611 170.022 282 170.125 282.481 170.125C283.028 170.125 283.462 170.009 283.783 169.777C284.108 169.542 284.27 169.26 284.27 168.932C284.27 168.667 284.178 168.445 283.992 168.266C283.806 168.083 283.521 167.947 283.137 167.858L281.864 167.56C281.165 167.394 280.651 167.137 280.323 166.789C279.998 166.438 279.836 165.999 279.836 165.472C279.836 165.041 279.957 164.66 280.199 164.328C280.444 163.997 280.777 163.737 281.198 163.548C281.622 163.359 282.103 163.264 282.64 163.264C283.395 163.264 283.989 163.43 284.42 163.761C284.854 164.093 285.162 164.53 285.344 165.074ZM288.423 166.406V171H287.25V160.818H288.423V164.557H288.522C288.701 164.162 288.97 163.849 289.328 163.617C289.689 163.382 290.17 163.264 290.77 163.264C291.29 163.264 291.746 163.369 292.137 163.577C292.528 163.783 292.831 164.099 293.047 164.527C293.265 164.951 293.375 165.491 293.375 166.148V171H292.201V166.227C292.201 165.621 292.044 165.152 291.729 164.82C291.417 164.486 290.985 164.318 290.431 164.318C290.047 164.318 289.702 164.399 289.397 164.562C289.096 164.724 288.857 164.961 288.681 165.273C288.509 165.584 288.423 165.962 288.423 166.406ZM295.521 171V163.364H296.694V171H295.521ZM296.118 162.091C295.889 162.091 295.692 162.013 295.526 161.857C295.364 161.701 295.282 161.514 295.282 161.295C295.282 161.077 295.364 160.889 295.526 160.734C295.692 160.578 295.889 160.5 296.118 160.5C296.346 160.5 296.542 160.578 296.704 160.734C296.87 160.889 296.953 161.077 296.953 161.295C296.953 161.514 296.87 161.701 296.704 161.857C296.542 162.013 296.346 162.091 296.118 162.091ZM301.946 171.159C301.256 171.159 300.651 170.995 300.131 170.667C299.614 170.339 299.21 169.88 298.918 169.29C298.63 168.7 298.485 168.01 298.485 167.222C298.485 166.426 298.63 165.732 298.918 165.138C299.21 164.545 299.614 164.085 300.131 163.756C300.651 163.428 301.256 163.264 301.946 163.264C302.635 163.264 303.238 163.428 303.755 163.756C304.276 164.085 304.68 164.545 304.968 165.138C305.26 165.732 305.406 166.426 305.406 167.222C305.406 168.01 305.26 168.7 304.968 169.29C304.68 169.88 304.276 170.339 303.755 170.667C303.238 170.995 302.635 171.159 301.946 171.159ZM301.946 170.105C302.469 170.105 302.9 169.971 303.238 169.702C303.576 169.434 303.827 169.081 303.989 168.643C304.151 168.206 304.233 167.732 304.233 167.222C304.233 166.711 304.151 166.236 303.989 165.795C303.827 165.354 303.576 164.998 303.238 164.726C302.9 164.454 302.469 164.318 301.946 164.318C301.422 164.318 300.991 164.454 300.653 164.726C300.315 164.998 300.065 165.354 299.902 165.795C299.74 166.236 299.659 166.711 299.659 167.222C299.659 167.732 299.74 168.206 299.902 168.643C300.065 169.081 300.315 169.434 300.653 169.702C300.991 169.971 301.422 170.105 301.946 170.105ZM308.37 166.406V171H307.197V163.364H308.33V164.557H308.43C308.609 164.169 308.881 163.857 309.245 163.622C309.61 163.384 310.08 163.264 310.657 163.264C311.174 163.264 311.627 163.37 312.014 163.582C312.402 163.791 312.704 164.109 312.919 164.537C313.135 164.961 313.242 165.498 313.242 166.148V171H312.069V166.227C312.069 165.627 311.913 165.16 311.602 164.825C311.29 164.487 310.863 164.318 310.319 164.318C309.945 164.318 309.61 164.399 309.315 164.562C309.023 164.724 308.793 164.961 308.624 165.273C308.455 165.584 308.37 165.962 308.37 166.406ZM317.634 171.179C317.15 171.179 316.71 171.088 316.316 170.906C315.922 170.72 315.608 170.453 315.376 170.105C315.144 169.754 315.028 169.33 315.028 168.832C315.028 168.395 315.115 168.04 315.287 167.768C315.459 167.493 315.69 167.278 315.978 167.122C316.266 166.966 316.585 166.85 316.933 166.774C317.284 166.695 317.637 166.632 317.991 166.585C318.455 166.526 318.832 166.481 319.12 166.451C319.412 166.418 319.624 166.363 319.756 166.287C319.892 166.211 319.96 166.078 319.96 165.889V165.849C319.96 165.359 319.826 164.978 319.558 164.706C319.292 164.434 318.89 164.298 318.349 164.298C317.789 164.298 317.35 164.421 317.032 164.666C316.714 164.911 316.49 165.173 316.361 165.452L315.247 165.054C315.446 164.59 315.711 164.229 316.043 163.97C316.377 163.708 316.742 163.526 317.136 163.423C317.534 163.317 317.925 163.264 318.31 163.264C318.555 163.264 318.837 163.294 319.155 163.354C319.476 163.41 319.786 163.528 320.085 163.707C320.386 163.886 320.636 164.156 320.835 164.517C321.034 164.878 321.134 165.362 321.134 165.969V171H319.96V169.966H319.901C319.821 170.132 319.688 170.309 319.503 170.498C319.317 170.687 319.07 170.848 318.762 170.98C318.454 171.113 318.078 171.179 317.634 171.179ZM317.812 170.125C318.277 170.125 318.668 170.034 318.986 169.852C319.307 169.669 319.549 169.434 319.712 169.146C319.877 168.857 319.96 168.554 319.96 168.236V167.162C319.911 167.222 319.801 167.276 319.632 167.326C319.466 167.372 319.274 167.414 319.055 167.45C318.84 167.483 318.629 167.513 318.424 167.54C318.222 167.563 318.058 167.583 317.932 167.599C317.627 167.639 317.342 167.704 317.077 167.793C316.815 167.879 316.603 168.01 316.44 168.186C316.281 168.358 316.202 168.594 316.202 168.892C316.202 169.3 316.353 169.608 316.654 169.817C316.959 170.022 317.345 170.125 317.812 170.125ZM323.434 171V160.818H324.607V164.577H324.707C324.793 164.444 324.912 164.275 325.065 164.07C325.221 163.861 325.443 163.675 325.731 163.513C326.023 163.347 326.417 163.264 326.914 163.264C327.557 163.264 328.124 163.425 328.615 163.746C329.105 164.068 329.488 164.524 329.763 165.114C330.038 165.704 330.176 166.4 330.176 167.202C330.176 168.01 330.038 168.711 329.763 169.305C329.488 169.895 329.107 170.352 328.619 170.677C328.132 170.998 327.57 171.159 326.934 171.159C326.444 171.159 326.051 171.078 325.756 170.915C325.461 170.75 325.234 170.562 325.075 170.354C324.916 170.142 324.793 169.966 324.707 169.827H324.568V171H323.434ZM324.588 167.182C324.588 167.759 324.672 168.267 324.841 168.708C325.01 169.146 325.257 169.489 325.582 169.737C325.907 169.982 326.304 170.105 326.775 170.105C327.266 170.105 327.675 169.976 328.003 169.717C328.334 169.455 328.583 169.104 328.749 168.663C328.918 168.219 329.002 167.725 329.002 167.182C329.002 166.645 328.919 166.161 328.754 165.73C328.591 165.296 328.344 164.953 328.013 164.701C327.685 164.446 327.272 164.318 326.775 164.318C326.298 164.318 325.897 164.439 325.572 164.681C325.247 164.92 325.002 165.254 324.836 165.685C324.67 166.113 324.588 166.612 324.588 167.182ZM333.144 160.818V171H331.97V160.818H333.144ZM338.494 171.159C337.759 171.159 337.124 170.997 336.59 170.672C336.06 170.344 335.651 169.886 335.362 169.3C335.077 168.71 334.935 168.024 334.935 167.241C334.935 166.459 335.077 165.77 335.362 165.173C335.651 164.573 336.052 164.106 336.565 163.771C337.082 163.433 337.686 163.264 338.375 163.264C338.773 163.264 339.165 163.33 339.553 163.463C339.941 163.596 340.294 163.811 340.612 164.109C340.93 164.404 341.184 164.795 341.373 165.283C341.562 165.77 341.656 166.37 341.656 167.082V167.58H335.77V166.565H340.463C340.463 166.134 340.377 165.75 340.205 165.412C340.036 165.074 339.794 164.807 339.479 164.612C339.167 164.416 338.799 164.318 338.375 164.318C337.908 164.318 337.503 164.434 337.162 164.666C336.824 164.895 336.564 165.193 336.381 165.561C336.199 165.929 336.108 166.323 336.108 166.744V167.42C336.108 167.997 336.207 168.486 336.406 168.887C336.608 169.285 336.888 169.588 337.246 169.797C337.604 170.002 338.02 170.105 338.494 170.105C338.803 170.105 339.081 170.062 339.33 169.976C339.581 169.886 339.799 169.754 339.981 169.578C340.163 169.399 340.304 169.177 340.403 168.912L341.537 169.23C341.418 169.615 341.217 169.953 340.935 170.244C340.654 170.533 340.306 170.758 339.891 170.92C339.477 171.08 339.011 171.159 338.494 171.159ZM345.191 169.608L345.112 170.145C345.055 170.523 344.969 170.927 344.853 171.358C344.74 171.789 344.623 172.195 344.5 172.576C344.377 172.957 344.276 173.26 344.197 173.486H343.302C343.345 173.274 343.401 172.994 343.471 172.646C343.54 172.298 343.61 171.908 343.68 171.477C343.753 171.05 343.812 170.612 343.859 170.165L343.918 169.608H345.191ZM351.461 171V160.818H352.635V164.577H352.734C352.82 164.444 352.94 164.275 353.092 164.07C353.248 163.861 353.47 163.675 353.758 163.513C354.05 163.347 354.444 163.264 354.942 163.264C355.585 163.264 356.151 163.425 356.642 163.746C357.132 164.068 357.515 164.524 357.79 165.114C358.065 165.704 358.203 166.4 358.203 167.202C358.203 168.01 358.065 168.711 357.79 169.305C357.515 169.895 357.134 170.352 356.647 170.677C356.16 170.998 355.598 171.159 354.961 171.159C354.471 171.159 354.078 171.078 353.783 170.915C353.488 170.75 353.261 170.562 353.102 170.354C352.943 170.142 352.82 169.966 352.734 169.827H352.595V171H351.461ZM352.615 167.182C352.615 167.759 352.699 168.267 352.868 168.708C353.037 169.146 353.284 169.489 353.609 169.737C353.934 169.982 354.332 170.105 354.802 170.105C355.293 170.105 355.702 169.976 356.03 169.717C356.362 169.455 356.61 169.104 356.776 168.663C356.945 168.219 357.03 167.725 357.03 167.182C357.03 166.645 356.947 166.161 356.781 165.73C356.619 165.296 356.372 164.953 356.04 164.701C355.712 164.446 355.3 164.318 354.802 164.318C354.325 164.318 353.924 164.439 353.599 164.681C353.274 164.92 353.029 165.254 352.863 165.685C352.698 166.113 352.615 166.612 352.615 167.182ZM364.81 167.878V163.364H365.983V171H364.81V169.707H364.731C364.552 170.095 364.273 170.425 363.895 170.697C363.518 170.965 363.04 171.099 362.464 171.099C361.986 171.099 361.562 170.995 361.191 170.786C360.82 170.574 360.528 170.256 360.316 169.832C360.104 169.404 359.998 168.866 359.998 168.216V163.364H361.171V168.136C361.171 168.693 361.327 169.137 361.638 169.469C361.953 169.8 362.354 169.966 362.841 169.966C363.133 169.966 363.43 169.891 363.731 169.742C364.036 169.593 364.291 169.364 364.497 169.056C364.706 168.748 364.81 168.355 364.81 167.878ZM371.453 163.364V164.358H367.496V163.364H371.453ZM368.65 161.534H369.823V168.812C369.823 169.144 369.871 169.393 369.967 169.558C370.066 169.721 370.192 169.83 370.345 169.886C370.501 169.939 370.665 169.966 370.837 169.966C370.966 169.966 371.072 169.959 371.155 169.946C371.238 169.929 371.304 169.916 371.354 169.906L371.593 170.96C371.513 170.99 371.402 171.02 371.26 171.05C371.117 171.083 370.936 171.099 370.718 171.099C370.386 171.099 370.061 171.028 369.743 170.886C369.428 170.743 369.167 170.526 368.958 170.234C368.752 169.943 368.65 169.575 368.65 169.131V161.534ZM378.886 171L376.559 163.364H377.792L379.443 169.21H379.522L381.153 163.364H382.406L384.017 169.19H384.096L385.747 163.364H386.98L384.653 171H383.5L381.829 165.134H381.71L380.039 171H378.886ZM390.778 171.179C390.294 171.179 389.855 171.088 389.461 170.906C389.066 170.72 388.753 170.453 388.521 170.105C388.289 169.754 388.173 169.33 388.173 168.832C388.173 168.395 388.259 168.04 388.431 167.768C388.604 167.493 388.834 167.278 389.123 167.122C389.411 166.966 389.729 166.85 390.077 166.774C390.428 166.695 390.781 166.632 391.136 166.585C391.6 166.526 391.976 166.481 392.265 166.451C392.556 166.418 392.768 166.363 392.901 166.287C393.037 166.211 393.105 166.078 393.105 165.889V165.849C393.105 165.359 392.971 164.978 392.702 164.706C392.437 164.434 392.034 164.298 391.494 164.298C390.934 164.298 390.495 164.421 390.176 164.666C389.858 164.911 389.635 165.173 389.505 165.452L388.392 165.054C388.591 164.59 388.856 164.229 389.187 163.97C389.522 163.708 389.886 163.526 390.281 163.423C390.679 163.317 391.07 163.264 391.454 163.264C391.699 163.264 391.981 163.294 392.299 163.354C392.621 163.41 392.931 163.528 393.229 163.707C393.531 163.886 393.781 164.156 393.98 164.517C394.179 164.878 394.278 165.362 394.278 165.969V171H393.105V169.966H393.045C392.966 170.132 392.833 170.309 392.647 170.498C392.462 170.687 392.215 170.848 391.907 170.98C391.598 171.113 391.222 171.179 390.778 171.179ZM390.957 170.125C391.421 170.125 391.812 170.034 392.13 169.852C392.452 169.669 392.694 169.434 392.856 169.146C393.022 168.857 393.105 168.554 393.105 168.236V167.162C393.055 167.222 392.946 167.276 392.777 167.326C392.611 167.372 392.419 167.414 392.2 167.45C391.984 167.483 391.774 167.513 391.569 167.54C391.366 167.563 391.202 167.583 391.076 167.599C390.771 167.639 390.486 167.704 390.221 167.793C389.959 167.879 389.747 168.01 389.585 168.186C389.426 168.358 389.346 168.594 389.346 168.892C389.346 169.3 389.497 169.608 389.799 169.817C390.104 170.022 390.49 170.125 390.957 170.125ZM397.593 166.406V171H396.42V163.364H397.553V164.557H397.653C397.831 164.169 398.103 163.857 398.468 163.622C398.832 163.384 399.303 163.264 399.88 163.264C400.397 163.264 400.849 163.37 401.237 163.582C401.625 163.791 401.926 164.109 402.142 164.537C402.357 164.961 402.465 165.498 402.465 166.148V171H401.292V166.227C401.292 165.627 401.136 165.16 400.824 164.825C400.513 164.487 400.085 164.318 399.542 164.318C399.167 164.318 398.832 164.399 398.537 164.562C398.246 164.724 398.015 164.961 397.846 165.273C397.677 165.584 397.593 165.962 397.593 166.406ZM407.93 163.364V164.358H403.973V163.364H407.93ZM405.126 161.534H406.299V168.812C406.299 169.144 406.347 169.393 406.444 169.558C406.543 169.721 406.669 169.83 406.821 169.886C406.977 169.939 407.141 169.966 407.314 169.966C407.443 169.966 407.549 169.959 407.632 169.946C407.715 169.929 407.781 169.916 407.831 169.906L408.069 170.96C407.99 170.99 407.879 171.02 407.736 171.05C407.594 171.083 407.413 171.099 407.194 171.099C406.863 171.099 406.538 171.028 406.22 170.886C405.905 170.743 405.643 170.526 405.434 170.234C405.229 169.943 405.126 169.575 405.126 169.131V161.534ZM416.953 163.364V164.358H412.996V163.364H416.953ZM414.15 161.534H415.323V168.812C415.323 169.144 415.371 169.393 415.467 169.558C415.566 169.721 415.692 169.83 415.845 169.886C416.001 169.939 416.165 169.966 416.337 169.966C416.466 169.966 416.572 169.959 416.655 169.946C416.738 169.929 416.804 169.916 416.854 169.906L417.093 170.96C417.013 170.99 416.902 171.02 416.76 171.05C416.617 171.083 416.436 171.099 416.218 171.099C415.886 171.099 415.561 171.028 415.243 170.886C414.928 170.743 414.667 170.526 414.458 170.234C414.252 169.943 414.15 169.575 414.15 169.131V161.534ZM421.739 171.159C421.049 171.159 420.444 170.995 419.924 170.667C419.407 170.339 419.003 169.88 418.711 169.29C418.423 168.7 418.278 168.01 418.278 167.222C418.278 166.426 418.423 165.732 418.711 165.138C419.003 164.545 419.407 164.085 419.924 163.756C420.444 163.428 421.049 163.264 421.739 163.264C422.428 163.264 423.031 163.428 423.548 163.756C424.069 164.085 424.473 164.545 424.761 165.138C425.053 165.732 425.199 166.426 425.199 167.222C425.199 168.01 425.053 168.7 424.761 169.29C424.473 169.88 424.069 170.339 423.548 170.667C423.031 170.995 422.428 171.159 421.739 171.159ZM421.739 170.105C422.262 170.105 422.693 169.971 423.031 169.702C423.369 169.434 423.62 169.081 423.782 168.643C423.944 168.206 424.026 167.732 424.026 167.222C424.026 166.711 423.944 166.236 423.782 165.795C423.62 165.354 423.369 164.998 423.031 164.726C422.693 164.454 422.262 164.318 421.739 164.318C421.215 164.318 420.784 164.454 420.446 164.726C420.108 164.998 419.858 165.354 419.695 165.795C419.533 166.236 419.452 166.711 419.452 167.222C419.452 167.732 419.533 168.206 419.695 168.643C419.858 169.081 420.108 169.434 420.446 169.702C420.784 169.971 421.215 170.105 421.739 170.105ZM431.086 171V160.818H432.26V164.577H432.359C432.445 164.444 432.565 164.275 432.717 164.07C432.873 163.861 433.095 163.675 433.383 163.513C433.675 163.347 434.069 163.264 434.567 163.264C435.21 163.264 435.776 163.425 436.267 163.746C436.757 164.068 437.14 164.524 437.415 165.114C437.69 165.704 437.828 166.4 437.828 167.202C437.828 168.01 437.69 168.711 437.415 169.305C437.14 169.895 436.759 170.352 436.272 170.677C435.785 170.998 435.223 171.159 434.586 171.159C434.096 171.159 433.703 171.078 433.408 170.915C433.113 170.75 432.886 170.562 432.727 170.354C432.568 170.142 432.445 169.966 432.359 169.827H432.22V171H431.086ZM432.24 167.182C432.24 167.759 432.324 168.267 432.493 168.708C432.662 169.146 432.909 169.489 433.234 169.737C433.559 169.982 433.957 170.105 434.427 170.105C434.918 170.105 435.327 169.976 435.655 169.717C435.987 169.455 436.235 169.104 436.401 168.663C436.57 168.219 436.655 167.725 436.655 167.182C436.655 166.645 436.572 166.161 436.406 165.73C436.244 165.296 435.997 164.953 435.665 164.701C435.337 164.446 434.925 164.318 434.427 164.318C433.95 164.318 433.549 164.439 433.224 164.681C432.899 164.92 432.654 165.254 432.488 165.685C432.323 166.113 432.24 166.612 432.24 167.182ZM442.824 171.159C442.089 171.159 441.454 170.997 440.92 170.672C440.39 170.344 439.981 169.886 439.692 169.3C439.407 168.71 439.265 168.024 439.265 167.241C439.265 166.459 439.407 165.77 439.692 165.173C439.981 164.573 440.382 164.106 440.895 163.771C441.412 163.433 442.016 163.264 442.705 163.264C443.103 163.264 443.496 163.33 443.883 163.463C444.271 163.596 444.624 163.811 444.942 164.109C445.26 164.404 445.514 164.795 445.703 165.283C445.892 165.77 445.986 166.37 445.986 167.082V167.58H440.1V166.565H444.793C444.793 166.134 444.707 165.75 444.535 165.412C444.366 165.074 444.124 164.807 443.809 164.612C443.497 164.416 443.129 164.318 442.705 164.318C442.238 164.318 441.833 164.434 441.492 164.666C441.154 164.895 440.894 165.193 440.711 165.561C440.529 165.929 440.438 166.323 440.438 166.744V167.42C440.438 167.997 440.537 168.486 440.736 168.887C440.939 169.285 441.219 169.588 441.577 169.797C441.934 170.002 442.35 170.105 442.824 170.105C443.133 170.105 443.411 170.062 443.66 169.976C443.912 169.886 444.129 169.754 444.311 169.578C444.493 169.399 444.634 169.177 444.733 168.912L445.867 169.23C445.748 169.615 445.547 169.953 445.265 170.244C444.984 170.533 444.636 170.758 444.221 170.92C443.807 171.08 443.341 171.159 442.824 171.159ZM453.956 171.179C453.472 171.179 453.033 171.088 452.638 170.906C452.244 170.72 451.931 170.453 451.699 170.105C451.467 169.754 451.351 169.33 451.351 168.832C451.351 168.395 451.437 168.04 451.609 167.768C451.782 167.493 452.012 167.278 452.3 167.122C452.589 166.966 452.907 166.85 453.255 166.774C453.606 166.695 453.959 166.632 454.314 166.585C454.778 166.526 455.154 166.481 455.442 166.451C455.734 166.418 455.946 166.363 456.079 166.287C456.215 166.211 456.282 166.078 456.282 165.889V165.849C456.282 165.359 456.148 164.978 455.88 164.706C455.615 164.434 455.212 164.298 454.672 164.298C454.112 164.298 453.672 164.421 453.354 164.666C453.036 164.911 452.812 165.173 452.683 165.452L451.569 165.054C451.768 164.59 452.033 164.229 452.365 163.97C452.7 163.708 453.064 163.526 453.459 163.423C453.856 163.317 454.247 163.264 454.632 163.264C454.877 163.264 455.159 163.294 455.477 163.354C455.799 163.41 456.108 163.528 456.407 163.707C456.708 163.886 456.959 164.156 457.157 164.517C457.356 164.878 457.456 165.362 457.456 165.969V171H456.282V169.966H456.223C456.143 170.132 456.011 170.309 455.825 170.498C455.64 170.687 455.393 170.848 455.084 170.98C454.776 171.113 454.4 171.179 453.956 171.179ZM454.135 170.125C454.599 170.125 454.99 170.034 455.308 169.852C455.63 169.669 455.872 169.434 456.034 169.146C456.2 168.857 456.282 168.554 456.282 168.236V167.162C456.233 167.222 456.123 167.276 455.954 167.326C455.789 167.372 455.596 167.414 455.378 167.45C455.162 167.483 454.952 167.513 454.746 167.54C454.544 167.563 454.38 167.583 454.254 167.599C453.949 167.639 453.664 167.704 453.399 167.793C453.137 167.879 452.925 168.01 452.763 168.186C452.604 168.358 452.524 168.594 452.524 168.892C452.524 169.3 452.675 169.608 452.976 169.817C453.281 170.022 453.667 170.125 454.135 170.125ZM460.771 166.406V171H459.597V160.818H460.771V164.557H460.87C461.049 164.162 461.317 163.849 461.675 163.617C462.037 163.382 462.517 163.264 463.117 163.264C463.638 163.264 464.093 163.369 464.484 163.577C464.875 163.783 465.179 164.099 465.394 164.527C465.613 164.951 465.722 165.491 465.722 166.148V171H464.549V166.227C464.549 165.621 464.392 165.152 464.077 164.82C463.765 164.486 463.333 164.318 462.779 164.318C462.395 164.318 462.05 164.399 461.745 164.562C461.443 164.724 461.205 164.961 461.029 165.273C460.857 165.584 460.771 165.962 460.771 166.406ZM471.07 171.159C470.335 171.159 469.7 170.997 469.166 170.672C468.636 170.344 468.227 169.886 467.938 169.3C467.653 168.71 467.511 168.024 467.511 167.241C467.511 166.459 467.653 165.77 467.938 165.173C468.227 164.573 468.628 164.106 469.142 163.771C469.659 163.433 470.262 163.264 470.951 163.264C471.349 163.264 471.742 163.33 472.129 163.463C472.517 163.596 472.87 163.811 473.188 164.109C473.507 164.404 473.76 164.795 473.949 165.283C474.138 165.77 474.232 166.37 474.232 167.082V167.58H468.346V166.565H473.039C473.039 166.134 472.953 165.75 472.781 165.412C472.612 165.074 472.37 164.807 472.055 164.612C471.743 164.416 471.375 164.318 470.951 164.318C470.484 164.318 470.079 164.434 469.738 164.666C469.4 164.895 469.14 165.193 468.958 165.561C468.775 165.929 468.684 166.323 468.684 166.744V167.42C468.684 167.997 468.784 168.486 468.982 168.887C469.185 169.285 469.465 169.588 469.823 169.797C470.181 170.002 470.597 170.105 471.07 170.105C471.379 170.105 471.657 170.062 471.906 169.976C472.158 169.886 472.375 169.754 472.557 169.578C472.739 169.399 472.88 169.177 472.98 168.912L474.113 169.23C473.994 169.615 473.793 169.953 473.512 170.244C473.23 170.533 472.882 170.758 472.468 170.92C472.053 171.08 471.588 171.159 471.07 171.159ZM478.264 171.179C477.78 171.179 477.341 171.088 476.947 170.906C476.552 170.72 476.239 170.453 476.007 170.105C475.775 169.754 475.659 169.33 475.659 168.832C475.659 168.395 475.745 168.04 475.918 167.768C476.09 167.493 476.32 167.278 476.609 167.122C476.897 166.966 477.215 166.85 477.563 166.774C477.915 166.695 478.268 166.632 478.622 166.585C479.086 166.526 479.463 166.481 479.751 166.451C480.043 166.418 480.255 166.363 480.387 166.287C480.523 166.211 480.591 166.078 480.591 165.889V165.849C480.591 165.359 480.457 164.978 480.188 164.706C479.923 164.434 479.521 164.298 478.98 164.298C478.42 164.298 477.981 164.421 477.663 164.666C477.345 164.911 477.121 165.173 476.992 165.452L475.878 165.054C476.077 164.59 476.342 164.229 476.673 163.97C477.008 163.708 477.373 163.526 477.767 163.423C478.165 163.317 478.556 163.264 478.941 163.264C479.186 163.264 479.468 163.294 479.786 163.354C480.107 163.41 480.417 163.528 480.715 163.707C481.017 163.886 481.267 164.156 481.466 164.517C481.665 164.878 481.764 165.362 481.764 165.969V171H480.591V169.966H480.531C480.452 170.132 480.319 170.309 480.134 170.498C479.948 170.687 479.701 170.848 479.393 170.98C479.085 171.113 478.709 171.179 478.264 171.179ZM478.443 170.125C478.907 170.125 479.298 170.034 479.617 169.852C479.938 169.669 480.18 169.434 480.343 169.146C480.508 168.857 480.591 168.554 480.591 168.236V167.162C480.541 167.222 480.432 167.276 480.263 167.326C480.097 167.372 479.905 167.414 479.686 167.45C479.471 167.483 479.26 167.513 479.055 167.54C478.853 167.563 478.689 167.583 478.563 167.599C478.258 167.639 477.973 167.704 477.708 167.793C477.446 167.879 477.234 168.01 477.071 168.186C476.912 168.358 476.833 168.594 476.833 168.892C476.833 169.3 476.983 169.608 477.285 169.817C477.59 170.022 477.976 170.125 478.443 170.125ZM486.789 171.159C486.153 171.159 485.591 170.998 485.104 170.677C484.617 170.352 484.236 169.895 483.961 169.305C483.685 168.711 483.548 168.01 483.548 167.202C483.548 166.4 483.685 165.704 483.961 165.114C484.236 164.524 484.618 164.068 485.109 163.746C485.6 163.425 486.166 163.264 486.809 163.264C487.306 163.264 487.699 163.347 487.988 163.513C488.279 163.675 488.501 163.861 488.654 164.07C488.81 164.275 488.931 164.444 489.017 164.577H489.116V160.818H490.289V171H489.156V169.827H489.017C488.931 169.966 488.808 170.142 488.649 170.354C488.49 170.562 488.263 170.75 487.968 170.915C487.673 171.078 487.28 171.159 486.789 171.159ZM486.949 170.105C487.419 170.105 487.817 169.982 488.142 169.737C488.467 169.489 488.713 169.146 488.882 168.708C489.051 168.267 489.136 167.759 489.136 167.182C489.136 166.612 489.053 166.113 488.887 165.685C488.722 165.254 488.476 164.92 488.152 164.681C487.827 164.439 487.426 164.318 486.949 164.318C486.451 164.318 486.037 164.446 485.706 164.701C485.377 164.953 485.131 165.296 484.965 165.73C484.802 166.161 484.721 166.645 484.721 167.182C484.721 167.725 484.804 168.219 484.97 168.663C485.139 169.104 485.387 169.455 485.716 169.717C486.047 169.976 486.458 170.105 486.949 170.105ZM499.641 171.159C498.952 171.159 498.347 170.995 497.826 170.667C497.309 170.339 496.905 169.88 496.613 169.29C496.325 168.7 496.181 168.01 496.181 167.222C496.181 166.426 496.325 165.732 496.613 165.138C496.905 164.545 497.309 164.085 497.826 163.756C498.347 163.428 498.952 163.264 499.641 163.264C500.33 163.264 500.934 163.428 501.451 163.756C501.971 164.085 502.375 164.545 502.664 165.138C502.955 165.732 503.101 166.426 503.101 167.222C503.101 168.01 502.955 168.7 502.664 169.29C502.375 169.88 501.971 170.339 501.451 170.667C500.934 170.995 500.33 171.159 499.641 171.159ZM499.641 170.105C500.165 170.105 500.596 169.971 500.934 169.702C501.272 169.434 501.522 169.081 501.684 168.643C501.847 168.206 501.928 167.732 501.928 167.222C501.928 166.711 501.847 166.236 501.684 165.795C501.522 165.354 501.272 164.998 500.934 164.726C500.596 164.454 500.165 164.318 499.641 164.318C499.117 164.318 498.686 164.454 498.348 164.726C498.01 164.998 497.76 165.354 497.598 165.795C497.435 166.236 497.354 166.711 497.354 167.222C497.354 167.732 497.435 168.206 497.598 168.643C497.76 169.081 498.01 169.434 498.348 169.702C498.686 169.971 499.117 170.105 499.641 170.105ZM508.293 163.364V164.358H504.176V163.364H508.293ZM505.409 171V162.31C505.409 161.872 505.512 161.508 505.718 161.216C505.923 160.924 506.19 160.705 506.518 160.56C506.846 160.414 507.192 160.341 507.557 160.341C507.845 160.341 508.081 160.364 508.263 160.411C508.445 160.457 508.581 160.5 508.671 160.54L508.333 161.554C508.273 161.534 508.19 161.509 508.084 161.479C507.981 161.45 507.845 161.435 507.676 161.435C507.289 161.435 507.008 161.532 506.836 161.728C506.667 161.924 506.583 162.21 506.583 162.588V171H505.409ZM517.196 163.364V164.358H513.238V163.364H517.196ZM514.392 161.534H515.565V168.812C515.565 169.144 515.613 169.393 515.709 169.558C515.809 169.721 515.935 169.83 516.087 169.886C516.243 169.939 516.407 169.966 516.579 169.966C516.708 169.966 516.815 169.959 516.897 169.946C516.98 169.929 517.047 169.916 517.096 169.906L517.335 170.96C517.255 170.99 517.144 171.02 517.002 171.05C516.859 171.083 516.679 171.099 516.46 171.099C516.128 171.099 515.804 171.028 515.485 170.886C515.171 170.743 514.909 170.526 514.7 170.234C514.494 169.943 514.392 169.575 514.392 169.131V161.534ZM520.298 166.406V171H519.125V160.818H520.298V164.557H520.397C520.576 164.162 520.845 163.849 521.203 163.617C521.564 163.382 522.045 163.264 522.645 163.264C523.165 163.264 523.621 163.369 524.012 163.577C524.403 163.783 524.706 164.099 524.922 164.527C525.14 164.951 525.25 165.491 525.25 166.148V171H524.076V166.227C524.076 165.621 523.919 165.152 523.604 164.82C523.292 164.486 522.86 164.318 522.306 164.318C521.922 164.318 521.577 164.399 521.272 164.562C520.971 164.724 520.732 164.961 520.556 165.273C520.384 165.584 520.298 165.962 520.298 166.406ZM530.598 171.159C529.862 171.159 529.227 170.997 528.694 170.672C528.163 170.344 527.754 169.886 527.466 169.3C527.181 168.71 527.038 168.024 527.038 167.241C527.038 166.459 527.181 165.77 527.466 165.173C527.754 164.573 528.155 164.106 528.669 163.771C529.186 163.433 529.789 163.264 530.479 163.264C530.876 163.264 531.269 163.33 531.657 163.463C532.045 163.596 532.398 163.811 532.716 164.109C533.034 164.404 533.287 164.795 533.476 165.283C533.665 165.77 533.76 166.37 533.76 167.082V167.58H527.873V166.565H532.567C532.567 166.134 532.48 165.75 532.308 165.412C532.139 165.074 531.897 164.807 531.582 164.612C531.271 164.416 530.903 164.318 530.479 164.318C530.011 164.318 529.607 164.434 529.265 164.666C528.927 164.895 528.667 165.193 528.485 165.561C528.303 165.929 528.211 166.323 528.211 166.744V167.42C528.211 167.997 528.311 168.486 528.51 168.887C528.712 169.285 528.992 169.588 529.35 169.797C529.708 170.002 530.124 170.105 530.598 170.105C530.906 170.105 531.184 170.062 531.433 169.976C531.685 169.886 531.902 169.754 532.084 169.578C532.267 169.399 532.407 169.177 532.507 168.912L533.64 169.23C533.521 169.615 533.321 169.953 533.039 170.244C532.757 170.533 532.409 170.758 531.995 170.92C531.581 171.08 531.115 171.159 530.598 171.159ZM542.564 174.023C541.998 174.023 541.51 173.95 541.103 173.804C540.695 173.661 540.355 173.473 540.084 173.237C539.815 173.005 539.601 172.757 539.442 172.491L540.377 171.835C540.483 171.974 540.617 172.134 540.78 172.312C540.942 172.495 541.164 172.652 541.446 172.785C541.731 172.921 542.104 172.989 542.564 172.989C543.181 172.989 543.69 172.839 544.091 172.541C544.492 172.243 544.692 171.776 544.692 171.139V169.588H544.593C544.507 169.727 544.384 169.9 544.225 170.105C544.069 170.307 543.844 170.488 543.549 170.647C543.257 170.803 542.863 170.881 542.366 170.881C541.749 170.881 541.196 170.735 540.705 170.443C540.218 170.152 539.832 169.727 539.547 169.17C539.265 168.614 539.124 167.937 539.124 167.142C539.124 166.36 539.262 165.679 539.537 165.099C539.812 164.515 540.195 164.065 540.685 163.746C541.176 163.425 541.742 163.264 542.385 163.264C542.883 163.264 543.277 163.347 543.569 163.513C543.864 163.675 544.089 163.861 544.245 164.07C544.404 164.275 544.527 164.444 544.613 164.577H544.732V163.364H545.866V171.219C545.866 171.875 545.716 172.409 545.418 172.82C545.123 173.234 544.725 173.537 544.225 173.729C543.728 173.925 543.174 174.023 542.564 174.023ZM542.525 169.827C542.995 169.827 543.393 169.719 543.718 169.504C544.043 169.288 544.29 168.978 544.459 168.574C544.628 168.17 544.712 167.686 544.712 167.122C544.712 166.572 544.629 166.086 544.464 165.665C544.298 165.245 544.053 164.915 543.728 164.676C543.403 164.437 543.002 164.318 542.525 164.318C542.028 164.318 541.613 164.444 541.282 164.696C540.954 164.948 540.707 165.286 540.541 165.71C540.379 166.134 540.297 166.605 540.297 167.122C540.297 167.652 540.38 168.121 540.546 168.529C540.715 168.933 540.964 169.252 541.292 169.484C541.623 169.712 542.034 169.827 542.525 169.827ZM550.26 171.179C549.777 171.179 549.337 171.088 548.943 170.906C548.549 170.72 548.235 170.453 548.003 170.105C547.771 169.754 547.655 169.33 547.655 168.832C547.655 168.395 547.742 168.04 547.914 167.768C548.086 167.493 548.317 167.278 548.605 167.122C548.893 166.966 549.211 166.85 549.559 166.774C549.911 166.695 550.264 166.632 550.618 166.585C551.082 166.526 551.459 166.481 551.747 166.451C552.039 166.418 552.251 166.363 552.383 166.287C552.519 166.211 552.587 166.078 552.587 165.889V165.849C552.587 165.359 552.453 164.978 552.184 164.706C551.919 164.434 551.517 164.298 550.976 164.298C550.416 164.298 549.977 164.421 549.659 164.666C549.341 164.911 549.117 165.173 548.988 165.452L547.874 165.054C548.073 164.59 548.338 164.229 548.67 163.97C549.004 163.708 549.369 163.526 549.763 163.423C550.161 163.317 550.552 163.264 550.937 163.264C551.182 163.264 551.464 163.294 551.782 163.354C552.103 163.41 552.413 163.528 552.711 163.707C553.013 163.886 553.263 164.156 553.462 164.517C553.661 164.878 553.76 165.362 553.76 165.969V171H552.587V169.966H552.528C552.448 170.132 552.315 170.309 552.13 170.498C551.944 170.687 551.697 170.848 551.389 170.98C551.081 171.113 550.705 171.179 550.26 171.179ZM550.439 170.125C550.903 170.125 551.295 170.034 551.613 169.852C551.934 169.669 552.176 169.434 552.339 169.146C552.504 168.857 552.587 168.554 552.587 168.236V167.162C552.537 167.222 552.428 167.276 552.259 167.326C552.093 167.372 551.901 167.414 551.682 167.45C551.467 167.483 551.256 167.513 551.051 167.54C550.849 167.563 550.685 167.583 550.559 167.599C550.254 167.639 549.969 167.704 549.704 167.793C549.442 167.879 549.23 168.01 549.067 168.186C548.908 168.358 548.829 168.594 548.829 168.892C548.829 169.3 548.979 169.608 549.281 169.817C549.586 170.022 549.972 170.125 550.439 170.125ZM555.902 171V163.364H557.036V164.557H557.135C557.294 164.149 557.551 163.833 557.906 163.607C558.26 163.379 558.686 163.264 559.183 163.264C559.687 163.264 560.106 163.379 560.441 163.607C560.779 163.833 561.043 164.149 561.232 164.557H561.311C561.507 164.162 561.8 163.849 562.191 163.617C562.582 163.382 563.051 163.264 563.598 163.264C564.281 163.264 564.839 163.478 565.273 163.906C565.708 164.33 565.925 164.991 565.925 165.889V171H564.751V165.889C564.751 165.326 564.597 164.923 564.289 164.681C563.981 164.439 563.618 164.318 563.2 164.318C562.663 164.318 562.247 164.481 561.952 164.805C561.657 165.127 561.51 165.535 561.51 166.028V171H560.317V165.77C560.317 165.336 560.176 164.986 559.894 164.721C559.612 164.452 559.25 164.318 558.805 164.318C558.5 164.318 558.215 164.399 557.95 164.562C557.688 164.724 557.476 164.95 557.314 165.238C557.155 165.523 557.075 165.853 557.075 166.227V171H555.902ZM571.272 171.159C570.536 171.159 569.901 170.997 569.368 170.672C568.837 170.344 568.428 169.886 568.14 169.3C567.855 168.71 567.712 168.024 567.712 167.241C567.712 166.459 567.855 165.77 568.14 165.173C568.428 164.573 568.829 164.106 569.343 163.771C569.86 163.433 570.463 163.264 571.152 163.264C571.55 163.264 571.943 163.33 572.331 163.463C572.718 163.596 573.071 163.811 573.39 164.109C573.708 164.404 573.961 164.795 574.15 165.283C574.339 165.77 574.434 166.37 574.434 167.082V167.58H568.547V166.565H573.24C573.24 166.134 573.154 165.75 572.982 165.412C572.813 165.074 572.571 164.807 572.256 164.612C571.944 164.416 571.577 164.318 571.152 164.318C570.685 164.318 570.281 164.434 569.939 164.666C569.601 164.895 569.341 165.193 569.159 165.561C568.976 165.929 568.885 166.323 568.885 166.744V167.42C568.885 167.997 568.985 168.486 569.184 168.887C569.386 169.285 569.666 169.588 570.024 169.797C570.382 170.002 570.798 170.105 571.272 170.105C571.58 170.105 571.858 170.062 572.107 169.976C572.359 169.886 572.576 169.754 572.758 169.578C572.94 169.399 573.081 169.177 573.181 168.912L574.314 169.23C574.195 169.615 573.994 169.953 573.713 170.244C573.431 170.533 573.083 170.758 572.669 170.92C572.254 171.08 571.789 171.159 571.272 171.159ZM577.074 171.08C576.828 171.08 576.618 170.992 576.442 170.816C576.266 170.64 576.179 170.43 576.179 170.185C576.179 169.939 576.266 169.729 576.442 169.553C576.618 169.378 576.828 169.29 577.074 169.29C577.319 169.29 577.529 169.378 577.705 169.553C577.881 169.729 577.968 169.939 577.968 170.185C577.968 170.347 577.927 170.496 577.844 170.632C577.765 170.768 577.657 170.877 577.521 170.96C577.388 171.04 577.239 171.08 577.074 171.08Z" fill="#D9D9D9"/>
<path d="M6.80114 11.3636C6.74148 10.8598 6.49953 10.4688 6.07528 10.1903C5.65104 9.91193 5.13068 9.77273 4.5142 9.77273C4.06345 9.77273 3.66903 9.84564 3.33097 9.99148C2.99621 10.1373 2.73438 10.3378 2.54545 10.593C2.35985 10.8482 2.26705 11.1383 2.26705 11.4631C2.26705 11.7348 2.33168 11.9685 2.46094 12.1641C2.59351 12.3563 2.76255 12.517 2.96804 12.6463C3.17353 12.7723 3.38897 12.8767 3.61435 12.9595C3.83973 13.0391 4.04688 13.1037 4.2358 13.1534L5.26989 13.4318C5.53504 13.5014 5.83002 13.5975 6.15483 13.7202C6.48295 13.8428 6.79616 14.0102 7.09446 14.2223C7.39607 14.4311 7.64465 14.6996 7.8402 15.0277C8.03575 15.3558 8.13352 15.7585 8.13352 16.2358C8.13352 16.786 7.98935 17.2831 7.70099 17.7273C7.41596 18.1714 6.99834 18.5244 6.44815 18.7862C5.90128 19.0481 5.23674 19.179 4.45455 19.179C3.72538 19.179 3.09399 19.0613 2.56037 18.826C2.03007 18.5907 1.61245 18.2625 1.30753 17.8416C1.00592 17.4207 0.835227 16.9318 0.795455 16.375H2.06818C2.10133 16.7595 2.23059 17.0777 2.45597 17.3295C2.68466 17.5781 2.97301 17.7637 3.32102 17.8864C3.67235 18.0057 4.05019 18.0653 4.45455 18.0653C4.92519 18.0653 5.34777 17.9891 5.7223 17.8366C6.09683 17.6809 6.39347 17.4654 6.61222 17.1903C6.83097 16.9119 6.94034 16.5871 6.94034 16.2159C6.94034 15.8778 6.84588 15.6027 6.65696 15.3906C6.46804 15.1785 6.21946 15.0062 5.91122 14.8736C5.60298 14.741 5.26989 14.625 4.91193 14.5256L3.65909 14.1676C2.86364 13.9389 2.2339 13.6125 1.76989 13.1882C1.30587 12.764 1.07386 12.2088 1.07386 11.5227C1.07386 10.9527 1.22798 10.4555 1.53622 10.0312C1.84777 9.60369 2.26539 9.27225 2.78906 9.03693C3.31605 8.7983 3.90436 8.67898 4.55398 8.67898C5.21023 8.67898 5.79356 8.79664 6.30398 9.03196C6.81439 9.26397 7.21875 9.58215 7.51705 9.98651C7.81866 10.3909 7.97775 10.8499 7.99432 11.3636H6.80114ZM9.60387 9.91193V8.81818H17.2402V9.91193H14.0385V19H12.8056V9.91193H9.60387ZM19.1431 19V8.81818H22.5835C23.3789 8.81818 24.0318 8.95407 24.5423 9.22585C25.0527 9.49432 25.4305 9.86387 25.6758 10.3345C25.921 10.8052 26.0437 11.3404 26.0437 11.9403C26.0437 12.5402 25.921 13.0722 25.6758 13.5362C25.4305 14.0002 25.0543 14.3648 24.5472 14.63C24.0401 14.8918 23.3922 15.0227 22.6033 15.0227H19.8192V13.9091H22.5636C23.1071 13.9091 23.5446 13.8295 23.8761 13.6705C24.2108 13.5114 24.4528 13.286 24.6019 12.9943C24.7544 12.6993 24.8306 12.348 24.8306 11.9403C24.8306 11.5327 24.7544 11.1764 24.6019 10.8714C24.4495 10.5665 24.2058 10.3312 23.8711 10.1655C23.5363 9.99645 23.0939 9.91193 22.5437 9.91193H20.3761V19H19.1431ZM23.9357 14.4261L26.4414 19H25.0096L22.5437 14.4261H23.9357ZM28.0982 19V8.81818H34.2431V9.91193H29.3311V13.3523H33.9249V14.446H29.3311V17.9062H34.3226V19H28.0982ZM36.4654 19V8.81818H42.6103V9.91193H37.6983V13.3523H42.2921V14.446H37.6983V17.9062H42.6898V19H36.4654ZM44.2757 9.91193V8.81818H51.9121V9.91193H48.7104V19H47.4775V9.91193H44.2757Z" fill="#D9D9D9"/>
<path d="M75.9981 10.9868L79.0145 16.9821" stroke="#878787" stroke-width="1.46158"/>
<path d="M80.5043 12.4783L74.5091 15.4947" stroke="#878787" stroke-width="1.46158"/>
<path d="M87.9966 11.0173L91.013 17.0126" stroke="#878787" stroke-width="1.46158"/>
<path d="M92.5028 12.5088L86.5076 15.5252" stroke="#878787" stroke-width="1.46158"/>
<path d="M99.9903 11.0173L103.007 17.0126" stroke="#878787" stroke-width="1.46158"/>
<path d="M104.497 12.5088L98.5013 15.5252" stroke="#878787" stroke-width="1.46158"/>
<path d="M133.074 11.3636C133.014 10.8598 132.772 10.4688 132.348 10.1903C131.923 9.91193 131.403 9.77273 130.787 9.77273C130.336 9.77273 129.941 9.84564 129.603 9.99148C129.269 10.1373 129.007 10.3378 128.818 10.593C128.632 10.8482 128.539 11.1383 128.539 11.4631C128.539 11.7348 128.604 11.9685 128.733 12.1641C128.866 12.3563 129.035 12.517 129.24 12.6463C129.446 12.7723 129.661 12.8767 129.887 12.9595C130.112 13.0391 130.319 13.1037 130.508 13.1534L131.542 13.4318C131.807 13.5014 132.102 13.5975 132.427 13.7202C132.755 13.8428 133.069 14.0102 133.367 14.2223C133.668 14.4311 133.917 14.6996 134.113 15.0277C134.308 15.3558 134.406 15.7585 134.406 16.2358C134.406 16.786 134.262 17.2831 133.973 17.7273C133.688 18.1714 133.271 18.5244 132.721 18.7862C132.174 19.0481 131.509 19.179 130.727 19.179C129.998 19.179 129.366 19.0613 128.833 18.826C128.302 18.5907 127.885 18.2625 127.58 17.8416C127.278 17.4207 127.108 16.9318 127.068 16.375H128.341C128.374 16.7595 128.503 17.0777 128.728 17.3295C128.957 17.5781 129.245 17.7637 129.593 17.8864C129.945 18.0057 130.323 18.0653 130.727 18.0653C131.198 18.0653 131.62 17.9891 131.995 17.8366C132.369 17.6809 132.666 17.4654 132.885 17.1903C133.103 16.9119 133.213 16.5871 133.213 16.2159C133.213 15.8778 133.118 15.6027 132.929 15.3906C132.74 15.1785 132.492 15.0062 132.184 14.8736C131.875 14.741 131.542 14.625 131.184 14.5256L129.931 14.1676C129.136 13.9389 128.506 13.6125 128.042 13.1882C127.578 12.764 127.346 12.2088 127.346 11.5227C127.346 10.9527 127.5 10.4555 127.809 10.0312C128.12 9.60369 128.538 9.27225 129.061 9.03693C129.588 8.7983 130.177 8.67898 130.826 8.67898C131.483 8.67898 132.066 8.79664 132.576 9.03196C133.087 9.26397 133.491 9.58215 133.789 9.98651C134.091 10.3909 134.25 10.8499 134.267 11.3636H133.074ZM135.876 9.91193V8.81818H143.513V9.91193H140.311V19H139.078V9.91193H135.876ZM144.541 8.81818H145.952L148.776 13.571H148.896L151.719 8.81818H153.131L149.452 14.804V19H148.219V14.804L144.541 8.81818ZM154.726 19V8.81818H155.959V17.9062H160.692V19H154.726ZM162.601 19V8.81818H168.746V9.91193H163.834V13.3523H168.428V14.446H163.834V17.9062H168.825V19H162.601Z" fill="#D9D9D9"/>
<defs>
<clipPath id="clip0_2_35">
<rect width="58" height="58" fill="white" transform="translate(521 153) rotate(-90)"/>
</clipPath>
</defs>
</svg>
