<svg width="22" height="1200" viewBox="0 0 22 1200" fill="none" xmlns="http://www.w3.org/2000/svg">
<g clip-path="url(#clip0_2_94)">
<line x1="-431.841" y1="1093.36" x2="99.8476" y2="1625.05" stroke="white" stroke-opacity="0.28" stroke-width="21.2675"/>
<line x1="-431.841" y1="975.557" x2="99.8476" y2="1507.25" stroke="white" stroke-opacity="0.28" stroke-width="21.2675"/>
<line x1="-431.841" y1="857.779" x2="99.8476" y2="1389.47" stroke="white" stroke-opacity="0.28" stroke-width="21.2675"/>
<line x1="-431.841" y1="739.976" x2="99.8476" y2="1271.66" stroke="white" stroke-opacity="0.28" stroke-width="21.2675"/>
<line x1="-431.841" y1="800.925" x2="99.8476" y2="1332.61" stroke="white" stroke-opacity="0.28" stroke-width="21.2675"/>
<line x1="-431.841" y1="622.198" x2="99.8476" y2="1153.89" stroke="white" stroke-opacity="0.28" stroke-width="21.2675"/>
<line x1="-431.841" y1="683.148" x2="99.8476" y2="1214.84" stroke="white" stroke-opacity="0.28" stroke-width="21.2675"/>
<line x1="-431.841" y1="504.411" x2="99.8476" y2="1036.1" stroke="white" stroke-opacity="0.28" stroke-width="21.2675"/>
<line x1="-431.841" y1="565.361" x2="99.8476" y2="1097.05" stroke="white" stroke-opacity="0.28" stroke-width="21.2675"/>
<line x1="-431.841" y1="386.608" x2="99.8476" y2="918.297" stroke="white" stroke-opacity="0.28" stroke-width="21.2675"/>
<line x1="-431.841" y1="447.557" x2="99.8476" y2="979.246" stroke="white" stroke-opacity="0.28" stroke-width="21.2675"/>
<line x1="-431.841" y1="268.838" x2="99.8476" y2="800.527" stroke="white" stroke-opacity="0.28" stroke-width="21.2675"/>
<line x1="-431.841" y1="329.788" x2="99.8476" y2="861.477" stroke="white" stroke-opacity="0.28" stroke-width="21.2675"/>
<line x1="-431.841" y1="151.018" x2="99.8476" y2="682.707" stroke="white" stroke-opacity="0.28" stroke-width="21.2675"/>
<line x1="-431.841" y1="211.968" x2="99.8476" y2="743.656" stroke="white" stroke-opacity="0.28" stroke-width="21.2675"/>
<line x1="-431.841" y1="33.2486" x2="99.8476" y2="564.937" stroke="white" stroke-opacity="0.28" stroke-width="21.2675"/>
<line x1="-431.841" y1="94.1981" x2="99.8476" y2="625.887" stroke="white" stroke-opacity="0.28" stroke-width="21.2675"/>
<line x1="-431.841" y1="-84.5295" x2="99.8476" y2="447.159" stroke="white" stroke-opacity="0.28" stroke-width="21.2675"/>
<line x1="-431.841" y1="-23.58" x2="99.8476" y2="508.109" stroke="white" stroke-opacity="0.28" stroke-width="21.2675"/>
<line x1="-431.841" y1="-202.341" x2="99.8473" y2="329.348" stroke="white" stroke-opacity="0.28" stroke-width="21.2675"/>
<line x1="-431.841" y1="-141.392" x2="99.8476" y2="390.297" stroke="white" stroke-opacity="0.28" stroke-width="21.2675"/>
<line x1="-431.841" y1="-320.119" x2="99.8473" y2="211.57" stroke="white" stroke-opacity="0.28" stroke-width="21.2675"/>
<line x1="-431.841" y1="-259.169" x2="99.8473" y2="272.52" stroke="white" stroke-opacity="0.28" stroke-width="21.2675"/>
<line x1="-431.841" y1="-437.922" x2="99.8473" y2="93.7666" stroke="white" stroke-opacity="0.28" stroke-width="21.2675"/>
<line x1="-431.841" y1="-376.973" x2="99.8473" y2="154.716" stroke="white" stroke-opacity="0.28" stroke-width="21.2675"/>
</g>
<defs>
<clipPath id="clip0_2_94">
<rect width="1330.04" height="373" fill="white" transform="translate(-351 1253.02) rotate(-90)"/>
</clipPath>
</defs>
</svg>
