<svg width="496" height="58" viewBox="0 0 496 58" fill="none" xmlns="http://www.w3.org/2000/svg">
<rect width="260" height="58" rx="29" fill="#FF4F2A"/>
<path d="M63.8068 21.4545V36H61.7898L54.3963 25.3324H54.2614V36H52.0668V21.4545H54.098L61.4986 32.1364H61.6335V21.4545H63.8068ZM79.6431 28.7273C79.6431 30.2803 79.359 31.6155 78.7908 32.733C78.2227 33.8456 77.4438 34.7027 76.4542 35.304C75.4693 35.9006 74.3496 36.1989 73.0948 36.1989C71.8353 36.1989 70.7108 35.9006 69.7212 35.304C68.7364 34.7027 67.9599 33.8433 67.3917 32.7259C66.8235 31.6084 66.5394 30.2756 66.5394 28.7273C66.5394 27.1742 66.8235 25.8414 67.3917 24.7287C67.9599 23.6113 68.7364 22.7543 69.7212 22.1577C70.7108 21.5563 71.8353 21.2557 73.0948 21.2557C74.3496 21.2557 75.4693 21.5563 76.4542 22.1577C77.4438 22.7543 78.2227 23.6113 78.7908 24.7287C79.359 25.8414 79.6431 27.1742 79.6431 28.7273ZM77.4698 28.7273C77.4698 27.5436 77.2781 26.5469 76.8945 25.7372C76.5157 24.9228 75.9949 24.3073 75.332 23.8906C74.6739 23.4692 73.9281 23.2585 73.0948 23.2585C72.2567 23.2585 71.5086 23.4692 70.8505 23.8906C70.1924 24.3073 69.6715 24.9228 69.288 25.7372C68.9092 26.5469 68.7198 27.5436 68.7198 28.7273C68.7198 29.911 68.9092 30.91 69.288 31.7244C69.6715 32.5341 70.1924 33.1496 70.8505 33.571C71.5086 33.9877 72.2567 34.196 73.0948 34.196C73.9281 34.196 74.6739 33.9877 75.332 33.571C75.9949 33.1496 76.5157 32.5341 76.8945 31.7244C77.2781 30.91 77.4698 29.911 77.4698 28.7273ZM85.0515 36L81.0174 21.4545H83.3256L86.1594 32.7188H86.2944L89.2418 21.4545H91.5288L94.4762 32.7259H94.6112L97.4379 21.4545H99.7532L95.712 36H93.5032L90.4421 25.1051H90.3285L87.2674 36H85.0515ZM109.242 21.4545V36H107.047V21.4545H109.242ZM124.178 21.4545V36H122.161L114.767 25.3324H114.632V36H112.438V21.4545H114.469L121.87 32.1364H122.005V21.4545H124.178ZM140.605 25.2756C140.53 24.6032 140.217 24.0824 139.668 23.7131C139.119 23.339 138.427 23.152 137.594 23.152C136.998 23.152 136.481 23.2467 136.046 23.4361C135.61 23.6207 135.272 23.8764 135.03 24.2031C134.793 24.5251 134.675 24.892 134.675 25.304C134.675 25.6496 134.756 25.9479 134.917 26.1989C135.082 26.4498 135.298 26.6605 135.563 26.831C135.833 26.9967 136.122 27.1364 136.429 27.25C136.737 27.3589 137.033 27.4489 137.317 27.5199L138.738 27.8892C139.202 28.0028 139.677 28.1567 140.165 28.3509C140.653 28.545 141.105 28.8007 141.522 29.1179C141.938 29.4351 142.275 29.8281 142.53 30.2969C142.791 30.7656 142.921 31.3267 142.921 31.9801C142.921 32.804 142.708 33.5355 142.282 34.1747C141.86 34.8139 141.247 35.3182 140.442 35.6875C139.642 36.0568 138.674 36.2415 137.537 36.2415C136.448 36.2415 135.506 36.0687 134.711 35.723C133.915 35.3774 133.292 34.8873 132.843 34.2528C132.393 33.6136 132.144 32.8561 132.097 31.9801H134.299C134.341 32.5057 134.512 32.9437 134.81 33.294C135.113 33.6397 135.499 33.8977 135.968 34.0682C136.441 34.2339 136.96 34.3168 137.523 34.3168C138.143 34.3168 138.695 34.2197 139.178 34.0256C139.666 33.8267 140.049 33.5521 140.328 33.2017C140.608 32.8466 140.748 32.4323 140.748 31.9588C140.748 31.5279 140.624 31.1752 140.378 30.9006C140.137 30.6259 139.808 30.3987 139.391 30.2188C138.979 30.0388 138.513 29.8802 137.992 29.7429L136.273 29.2741C135.108 28.9569 134.185 28.4905 133.503 27.875C132.826 27.2595 132.488 26.4451 132.488 25.4318C132.488 24.5937 132.715 23.8622 133.169 23.2372C133.624 22.6122 134.239 22.1269 135.016 21.7812C135.792 21.4309 136.668 21.2557 137.644 21.2557C138.629 21.2557 139.498 21.4285 140.25 21.7741C141.008 22.1198 141.605 22.5956 142.04 23.2017C142.476 23.803 142.703 24.4943 142.722 25.2756H140.605ZM144.826 23.3438V21.4545H156.083V23.3438H151.545V36H149.357V23.3438H144.826ZM170.581 28.7273C170.581 30.2803 170.297 31.6155 169.728 32.733C169.16 33.8456 168.381 34.7027 167.392 35.304C166.407 35.9006 165.287 36.1989 164.032 36.1989C162.773 36.1989 161.648 35.9006 160.659 35.304C159.674 34.7027 158.897 33.8433 158.329 32.7259C157.761 31.6084 157.477 30.2756 157.477 28.7273C157.477 27.1742 157.761 25.8414 158.329 24.7287C158.897 23.6113 159.674 22.7543 160.659 22.1577C161.648 21.5563 162.773 21.2557 164.032 21.2557C165.287 21.2557 166.407 21.5563 167.392 22.1577C168.381 22.7543 169.16 23.6113 169.728 24.7287C170.297 25.8414 170.581 27.1742 170.581 28.7273ZM168.407 28.7273C168.407 27.5436 168.216 26.5469 167.832 25.7372C167.453 24.9228 166.932 24.3073 166.27 23.8906C165.611 23.4692 164.866 23.2585 164.032 23.2585C163.194 23.2585 162.446 23.4692 161.788 23.8906C161.13 24.3073 160.609 24.9228 160.225 25.7372C159.847 26.5469 159.657 27.5436 159.657 28.7273C159.657 29.911 159.847 30.91 160.225 31.7244C160.609 32.5341 161.13 33.1496 161.788 33.571C162.446 33.9877 163.194 34.196 164.032 34.196C164.866 34.196 165.611 33.9877 166.27 33.571C166.932 33.1496 167.453 32.5341 167.832 31.7244C168.216 30.91 168.407 29.911 168.407 28.7273ZM173.317 36V21.4545H178.501C179.628 21.4545 180.563 21.6487 181.307 22.0369C182.055 22.4252 182.614 22.9626 182.983 23.6491C183.352 24.331 183.537 25.1193 183.537 26.0142C183.537 26.9044 183.35 27.688 182.976 28.3651C182.607 29.0374 182.048 29.5606 181.3 29.9347C180.556 30.3087 179.621 30.4957 178.494 30.4957H174.567V28.6065H178.295C179.006 28.6065 179.583 28.5047 180.028 28.3011C180.478 28.0975 180.807 27.8016 181.016 27.4134C181.224 27.0251 181.328 26.5587 181.328 26.0142C181.328 25.465 181.222 24.9891 181.009 24.5866C180.8 24.1842 180.471 23.8764 180.021 23.6634C179.576 23.4455 178.991 23.3366 178.267 23.3366H175.511V36H173.317ZM180.497 29.4375L184.091 36H181.591L178.068 29.4375H180.497ZM186.207 36V21.4545H195.327V23.3438H188.402V27.7756H194.851V29.6577H188.402V34.1108H195.412V36H186.207ZM206.191 25.2756C206.116 24.6032 205.803 24.0824 205.254 23.7131C204.705 23.339 204.013 23.152 203.18 23.152C202.583 23.152 202.067 23.2467 201.632 23.4361C201.196 23.6207 200.858 23.8764 200.616 24.2031C200.379 24.5251 200.261 24.892 200.261 25.304C200.261 25.6496 200.342 25.9479 200.502 26.1989C200.668 26.4498 200.884 26.6605 201.149 26.831C201.419 26.9967 201.708 27.1364 202.015 27.25C202.323 27.3589 202.619 27.4489 202.903 27.5199L204.324 27.8892C204.788 28.0028 205.263 28.1567 205.751 28.3509C206.239 28.545 206.691 28.8007 207.108 29.1179C207.524 29.4351 207.86 29.8281 208.116 30.2969C208.377 30.7656 208.507 31.3267 208.507 31.9801C208.507 32.804 208.294 33.5355 207.868 34.1747C207.446 34.8139 206.833 35.3182 206.028 35.6875C205.228 36.0568 204.26 36.2415 203.123 36.2415C202.034 36.2415 201.092 36.0687 200.297 35.723C199.501 35.3774 198.878 34.8873 198.429 34.2528C197.979 33.6136 197.73 32.8561 197.683 31.9801H199.885C199.927 32.5057 200.098 32.9437 200.396 33.294C200.699 33.6397 201.085 33.8977 201.554 34.0682C202.027 34.2339 202.546 34.3168 203.109 34.3168C203.729 34.3168 204.281 34.2197 204.764 34.0256C205.252 33.8267 205.635 33.5521 205.914 33.2017C206.194 32.8466 206.333 32.4323 206.333 31.9588C206.333 31.5279 206.21 31.1752 205.964 30.9006C205.723 30.6259 205.394 30.3987 204.977 30.2188C204.565 30.0388 204.099 29.8802 203.578 29.7429L201.859 29.2741C200.694 28.9569 199.771 28.4905 199.089 27.875C198.412 27.2595 198.074 26.4451 198.074 25.4318C198.074 24.5937 198.301 23.8622 198.755 23.2372C199.21 22.6122 199.825 22.1269 200.602 21.7812C201.378 21.4309 202.254 21.2557 203.23 21.2557C204.215 21.2557 205.083 21.4285 205.836 21.7741C206.594 22.1198 207.19 22.5956 207.626 23.2017C208.062 23.803 208.289 24.4943 208.308 25.2756H206.191Z" fill="#FAFAFA"/>
<circle cx="389" cy="29" r="29" fill="#FF4F2A"/>
<path d="M398.388 19.405C398.33 19.2605 398.218 19.1439 398.077 19.0795C397.935 19.0152 397.774 19.0079 397.627 19.0593C397.48 19.1107 397.358 19.2168 397.288 19.3555C397.217 19.4942 397.202 19.6548 397.247 19.804C398.176 22.474 396.332 24.468 394.926 25.536L394.358 24.722C394.167 24.449 393.74 24.222 393.408 24.218L390.22 24.232C389.831 24.2437 389.452 24.3605 389.123 24.57L379.729 31.157C379.51 31.3107 379.362 31.5448 379.316 31.8079C379.269 32.0711 379.329 32.3419 379.482 32.561L383.751 38.669C384.071 39.124 384.582 39.069 385.038 38.751L394.432 32.163C394.702 31.972 395.014 31.56 395.124 31.245L396.122 28.1C396.232 27.786 396.165 27.307 395.974 27.034L395.628 26.538C397.516 25.091 399.476 22.534 398.388 19.405ZM394.017 28.763C393.844 28.8841 393.649 28.97 393.442 29.0156C393.236 29.0613 393.023 29.0659 392.815 29.0291C392.607 28.9923 392.408 28.9149 392.23 28.8013C392.052 28.6877 391.898 28.5401 391.777 28.367C391.532 28.0166 391.436 27.5834 391.51 27.1623C391.584 26.7412 391.822 26.3667 392.172 26.121C392.446 25.9288 392.774 25.8271 393.109 25.8302C393.444 25.8332 393.769 25.9408 394.04 26.138C393.768 26.302 393.581 26.398 393.546 26.413C393.422 26.4721 393.322 26.5715 393.262 26.695C393.202 26.8185 393.185 26.9588 393.216 27.0928C393.246 27.2268 393.32 27.3466 393.427 27.4325C393.535 27.5185 393.668 27.5656 393.805 27.566C393.891 27.566 393.979 27.546 394.062 27.507C394.256 27.415 394.464 27.306 394.681 27.177C394.731 27.477 394.695 27.7851 394.578 28.0657C394.46 28.3463 394.266 28.588 394.017 28.763Z" fill="#FAFAFA"/>
<circle cx="467" cy="29" r="29" fill="#FAFAFA"/>
<path d="M462.188 27.625C461.508 27.625 460.843 27.4234 460.278 27.0457C459.712 26.668 459.272 26.1311 459.012 25.503C458.751 24.8749 458.683 24.1837 458.816 23.5169C458.949 22.8501 459.276 22.2376 459.757 21.7568C460.238 21.2761 460.85 20.9487 461.517 20.8161C462.184 20.6834 462.875 20.7515 463.503 21.0117C464.131 21.2718 464.668 21.7124 465.046 22.2777C465.423 22.843 465.625 23.5076 465.625 24.1875C465.624 25.0989 465.262 25.9727 464.617 26.6172C463.973 27.2616 463.099 27.6241 462.188 27.625ZM462.188 22.125C461.78 22.125 461.381 22.246 461.042 22.4726C460.702 22.6992 460.438 23.0213 460.282 23.3982C460.126 23.7751 460.085 24.1898 460.165 24.5899C460.244 24.99 460.441 25.3575 460.729 25.6459C461.018 25.9344 461.385 26.1308 461.785 26.2104C462.185 26.29 462.6 26.2491 462.977 26.093C463.354 25.9369 463.676 25.6725 463.902 25.3334C464.129 24.9942 464.25 24.5954 464.25 24.1875C464.249 23.6407 464.032 23.1164 463.645 22.7297C463.259 22.343 462.734 22.1255 462.188 22.125ZM458.75 36.2779L474.277 20.75L475.25 21.7228L459.722 37.25L458.75 36.2779ZM471.813 37.25C471.133 37.25 470.468 37.0484 469.903 36.6707C469.337 36.293 468.897 35.7561 468.637 35.128C468.376 34.4999 468.308 33.8087 468.441 33.1419C468.574 32.4751 468.901 31.8626 469.382 31.3818C469.863 30.9011 470.475 30.5737 471.142 30.4411C471.809 30.3084 472.5 30.3765 473.128 30.6367C473.756 30.8968 474.293 31.3374 474.671 31.9027C475.048 32.468 475.25 33.1326 475.25 33.8125C475.249 34.7239 474.887 35.5977 474.242 36.2422C473.598 36.8866 472.724 37.2491 471.813 37.25ZM471.813 31.75C471.405 31.75 471.006 31.871 470.667 32.0976C470.327 32.3242 470.063 32.6463 469.907 33.0232C469.751 33.4001 469.71 33.8148 469.79 34.2149C469.869 34.615 470.066 34.9825 470.354 35.2709C470.643 35.5594 471.01 35.7558 471.41 35.8354C471.81 35.915 472.225 35.8741 472.602 35.718C472.979 35.5619 473.301 35.2975 473.527 34.9584C473.754 34.6192 473.875 34.2204 473.875 33.8125C473.874 33.2657 473.657 32.7414 473.27 32.3547C472.884 31.968 472.359 31.7505 471.813 31.75Z" fill="#0E0E0E"/>
</svg>
